<svg width="24" height="24" viewBox="0 0 24 24" fill="none" xmlns="http://www.w3.org/2000/svg">
<path fill-rule="evenodd" clip-rule="evenodd" d="M9.875 5.1049C9.875 3.8775 10.8782 2.875 12.125 2.875C13.3718 2.875 14.375 3.8775 14.375 5.1049V5.37515L9.875 5.37507V5.1049ZM8.625 5.37505V5.1049C8.625 3.17887 10.1961 1.625 12.125 1.625C14.0539 1.625 15.625 3.17887 15.625 5.1049V5.37515L19 5.3752C19.4832 5.37522 19.875 5.76697 19.875 6.2502V14.7022C20.7942 15.5042 21.375 16.6843 21.375 18C21.375 20.4162 19.4162 22.375 17 22.375M16.9942 22.375H7.5C5.63605 22.375 4.125 20.864 4.125 19V6.25C4.125 5.76675 4.51675 5.375 5.00002 5.375L8.625 5.37505M12.125 10.875C13.4147 10.875 14.625 9.77132 14.625 8.5C14.625 8.15483 14.9048 7.875 15.25 7.875C15.5952 7.875 15.875 8.15483 15.875 8.5C15.875 10.5424 14.0215 12.125 12.125 12.125C10.2285 12.125 8.375 10.5424 8.375 8.5C8.375 8.15483 8.65483 7.875 9 7.875C9.34517 7.875 9.625 8.15483 9.625 8.5C9.625 9.77132 10.8353 10.875 12.125 10.875ZM13.875 18C13.875 16.2741 15.2741 14.875 17 14.875C18.7259 14.875 20.125 16.2741 20.125 18C20.125 19.7259 18.7259 21.125 17 21.125C15.2741 21.125 13.875 19.7259 13.875 18ZM15.75 17.375C15.4048 17.375 15.125 17.6548 15.125 18C15.125 18.3452 15.4048 18.625 15.75 18.625H16.375V19.25C16.375 19.5952 16.6548 19.875 17 19.875C17.3452 19.875 17.625 19.5952 17.625 19.25V18.625H18.25C18.5952 18.625 18.875 18.3452 18.875 18C18.875 17.6548 18.5952 17.375 18.25 17.375H17.625V16.75C17.625 16.4048 17.3452 16.125 17 16.125C16.6548 16.125 16.375 16.4048 16.375 16.75V17.375H15.75Z" fill="url(#paint0_linear_16_51)"/>
<defs>
<linearGradient id="paint0_linear_16_51" x1="12.75" y1="1.625" x2="12.75" y2="22.375" gradientUnits="userSpaceOnUse">
<stop stop-color="#FF1F00"/>
<stop offset="1" stop-color="#FF8A00"/>
</linearGradient>
</defs>
</svg>
