<svg xmlns="http://www.w3.org/2000/svg" viewBox="0 0 64 64" id="food-bill">
  <g>
    <path fill="#d7d7d8" d="M10 55.975v-50a4 4 0 0 1 4-4h40a4 4 0 0 0-4 4v52a4 4 0 0 1-4 4h-4.364Z"></path>
    <path fill="#e5e5e5" d="M17 1.975c-2.209 0-3 1.79-3 4V49.4c0 2.209.791 4 3 4h19.9a3.138 3.138 0 0 1 3.139 3.138v2.794a2.644 2.644 0 0 0 2.644 2.644H46a4 4 0 0 0 4-4v-52a4 4 0 0 1 4-4Z"></path>
    <path fill="#88898d" d="M50 5.975a4 4 0 0 1 4-4h4a4 4 0 0 1 4 4v2H50Z"></path>
    <path fill="#e5e5e5" d="M42.636 61.975H42a4 4 0 0 1-4-4v-2H2v2a4 4 0 0 0 4 4h36.636Z"></path>
    <path fill="#5a5b5d" d="M43 43.975a2 2 0 1 1 2-2h2a4 4 0 0 0-3-3.858v-2.142h-2v2.142a3.992 3.992 0 0 0 1 7.858 2 2 0 1 1-2 2h-2a4 4 0 0 0 3 3.858v2.142h2v-2.142a3.992 3.992 0 0 0-1-7.858zm0-16a3 3 0 1 0 3 3 3 3 0 0 0-3-3zm0 4a1 1 0 1 1 1-1 1 1 0 0 1-1 1zm0-12a3 3 0 1 0 3 3 3 3 0 0 0-3-3zm0 4a1 1 0 1 1 1-1 1 1 0 0 1-1 1zm-3-9a3 3 0 1 0 3-3 3 3 0 0 0-3 3zm3-1a1 1 0 1 1-1 1 1 1 0 0 1 1-1zM18 5.975h24v2H18zM21 11.975h17v2H21zM14 11.975h5v2h-5zM14 15.975h16v2H14zM32 15.975h6v2h-6zM21 21.975h17v2H21zM14 21.975h5v2h-5zM14 27.975h16v2H14zM32 27.975h6v2h-6zM21 31.975h17v2H21zM14 31.975h5v2h-5zM14 42.975h21v2H14zM14 46.975h21v2H14z"></path>
  </g>
</svg>
