<svg width="24" height="24" viewBox="0 0 24 24" fill="none" xmlns="http://www.w3.org/2000/svg">
<path d="M18.4885 6.16388V20.3961C18.4874 20.5623 18.4209 20.7214 18.3033 20.8389C18.1858 20.9564 18.0268 21.0229 17.8606 21.024H9.90725C9.63711 21.0252 9.36855 20.9828 9.11192 20.8985C8.55504 20.7296 8.06721 20.3862 7.72048 19.9189C7.37375 19.4515 7.1865 18.8851 7.18638 18.3032V5.32669C7.18638 4.74903 5.88036 4.2802 5.3027 4.2802C5.13617 4.2802 4.97646 4.21405 4.85871 4.0963C4.74096 3.97854 4.6748 3.81884 4.6748 3.65231C4.6748 3.48578 4.74096 3.32607 4.85871 3.20832C4.97646 3.09057 5.13617 3.02441 5.3027 3.02441H15.349C16.1816 3.02464 16.98 3.35547 17.5687 3.94419C18.1574 4.5329 18.4882 5.33131 18.4885 6.16388Z" fill="#00AA5B"/>
<path d="M3.58223 3.56877C3.39608 3.71722 3.24672 3.90664 3.14579 4.12229C3.04487 4.33793 2.9951 4.57397 3.00038 4.812V10.9779C3.00038 11.422 3.17679 11.8479 3.4908 12.1619C3.8048 12.4759 4.23069 12.6523 4.67476 12.6523H7.18634V5.11758C7.18042 4.70278 7.05452 4.29856 6.82386 3.95376C6.5932 3.60896 6.26763 3.33832 5.88649 3.17453C5.50535 3.01074 5.08494 2.96081 4.67604 3.03077C4.26713 3.10073 3.88724 3.28759 3.58223 3.56877ZM21 16.2104V18.7219C21.0002 19.0243 20.9408 19.3238 20.8252 19.6032C20.7096 19.8827 20.54 20.1366 20.3262 20.3504C20.1123 20.5642 19.8585 20.7338 19.579 20.8494C19.2996 20.965 19.0001 21.0244 18.6977 21.0242H9.90721C9.63707 21.0254 9.36851 20.983 9.11188 20.8986C9.87778 20.7082 10.5578 20.2666 11.0434 19.6444C11.529 19.0223 11.7921 18.2554 11.7909 17.4662V15.5825H20.3721C20.5383 15.5836 20.6974 15.6501 20.8149 15.7676C20.9324 15.8851 20.9989 16.0442 21 16.2104Z" fill="#145638"/>
<path d="M13.6747 7.62932H9.48873C9.32221 7.62932 9.1625 7.56317 9.04475 7.44542C8.92699 7.32766 8.86084 7.16796 8.86084 7.00143C8.86084 6.8349 8.92699 6.67519 9.04475 6.55744C9.1625 6.43969 9.32221 6.37354 9.48873 6.37354H13.6747C13.8412 6.37354 14.0009 6.43969 14.1187 6.55744C14.2364 6.67519 14.3026 6.8349 14.3026 7.00143C14.3026 7.16796 14.2364 7.32766 14.1187 7.44542C14.0009 7.56317 13.8412 7.62932 13.6747 7.62932ZM16.1863 10.1409H9.48873C9.32221 10.1409 9.1625 10.0747 9.04475 9.95699C8.92699 9.83924 8.86084 9.67953 8.86084 9.513C8.86084 9.34648 8.92699 9.18677 9.04475 9.06902C9.1625 8.95126 9.32221 8.88511 9.48873 8.88511H16.1863C16.3528 8.88511 16.5125 8.95126 16.6303 9.06902C16.748 9.18677 16.8142 9.34648 16.8142 9.513C16.8142 9.67953 16.748 9.83924 16.6303 9.95699C16.5125 10.0747 16.3528 10.1409 16.1863 10.1409ZM16.1863 12.6525H9.48873C9.32221 12.6525 9.1625 12.5863 9.04475 12.4686C8.92699 12.3508 8.86084 12.1911 8.86084 12.0246C8.86084 11.8581 8.92699 11.6983 9.04475 11.5806C9.1625 11.4628 9.32221 11.3967 9.48873 11.3967H16.1863C16.3528 11.3967 16.5125 11.4628 16.6303 11.5806C16.748 11.6983 16.8142 11.8581 16.8142 12.0246C16.8142 12.1911 16.748 12.3508 16.6303 12.4686C16.5125 12.5863 16.3528 12.6525 16.1863 12.6525Z" fill="white"/>
</svg>
