<svg width="24" height="24" viewBox="0 0 24 24" fill="none" xmlns="http://www.w3.org/2000/svg">
<path d="M19.5806 15.8256H5.75204C5.44469 15.8253 5.15004 15.703 4.93271 15.4857C4.71539 15.2684 4.59313 14.9737 4.59277 14.6664V7.7472C4.59312 7.43985 4.71537 7.14518 4.9327 6.92785C5.15002 6.71051 5.44469 6.58825 5.75204 6.58789H19.5806C19.8879 6.58825 20.1826 6.71051 20.3999 6.92785C20.6173 7.14518 20.7395 7.43985 20.7399 7.7472V14.6664C20.7395 14.9737 20.6173 15.2684 20.3999 15.4857C20.1826 15.703 19.8879 15.8253 19.5806 15.8256Z" fill="url(#paint0_linear_363_261)"/>
<path d="M17.9878 17.4188H4.15927C3.85194 17.4184 3.55731 17.2962 3.33999 17.0789C3.12267 16.8616 3.0004 16.567 3 16.2596V9.34046C3.00035 9.03311 3.12259 8.73844 3.33992 8.52111C3.55725 8.30377 3.85191 8.18151 4.15927 8.18115H17.9878C18.2952 8.1815 18.5898 8.30375 18.8072 8.52109C19.0245 8.73843 19.1467 9.03311 19.1471 9.34046V16.2596C19.1467 16.567 19.0244 16.8616 18.8071 17.0789C18.5898 17.2962 18.2951 17.4184 17.9878 17.4188Z" fill="url(#paint1_linear_363_261)"/>
<path d="M11.0512 15.3103C10.5503 15.3103 10.0606 15.1618 9.64412 14.8835C9.22764 14.6052 8.90303 14.2097 8.71134 13.7469C8.51965 13.2841 8.4695 12.7749 8.56722 12.2836C8.66494 11.7924 8.90615 11.3411 9.26034 10.9869C9.61453 10.6327 10.0658 10.3915 10.5571 10.2938C11.0484 10.1961 11.5576 10.2462 12.0204 10.4379C12.4831 10.6296 12.8787 10.9542 13.157 11.3707C13.4352 11.7872 13.5838 12.2768 13.5838 12.7777C13.583 13.4492 13.3159 14.0929 12.8412 14.5677C12.3664 15.0425 11.7226 15.3096 11.0512 15.3103ZM11.0512 11.1827C10.7357 11.1827 10.4273 11.2762 10.165 11.4515C9.90265 11.6268 9.6982 11.8759 9.57747 12.1674C9.45674 12.4588 9.42516 12.7796 9.48671 13.089C9.54826 13.3984 9.70018 13.6826 9.92327 13.9057C10.1464 14.1288 10.4306 14.2807 10.74 14.3422C11.0494 14.4038 11.3702 14.3722 11.6616 14.2514C11.9531 14.1307 12.2022 13.9263 12.3775 13.6639C12.5527 13.4016 12.6463 13.0932 12.6463 12.7777C12.6458 12.3548 12.4776 11.9494 12.1785 11.6504C11.8795 11.3513 11.4741 11.1831 11.0512 11.1827Z" fill="url(#paint2_linear_363_261)"/>
<defs>
<linearGradient id="paint0_linear_363_261" x1="21.0526" y1="19.5931" x2="5.25386" y2="3.79428" gradientUnits="userSpaceOnUse">
<stop stop-color="#0C9258"/>
<stop offset="1" stop-color="#89D935"/>
</linearGradient>
<linearGradient id="paint1_linear_363_261" x1="21.3668" y1="23.0933" x2="7.46559" y2="9.1921" gradientUnits="userSpaceOnUse">
<stop stop-color="#0C9258"/>
<stop offset="1" stop-color="#89D935"/>
</linearGradient>
<linearGradient id="paint2_linear_363_261" x1="16.5574" y1="18.284" x2="9.18174" y2="10.9083" gradientUnits="userSpaceOnUse">
<stop stop-color="#B3B3B3"/>
<stop offset="1" stop-color="white"/>
</linearGradient>
</defs>
</svg>
