<svg width="24" height="24" viewBox="0 0 24 24" fill="none" xmlns="http://www.w3.org/2000/svg">
<path d="M19.1246 4.71444V21.3437C19.1246 21.9034 18.6711 22.3575 18.1108 22.3575H3.70718C3.14618 22.3575 2.69336 21.9034 2.69336 21.3437V4.71444C2.69336 4.15482 3.14618 3.70068 3.70718 3.70068H18.1108C18.6711 3.70068 19.1246 4.15482 19.1246 4.71444Z" fill="#2A94F4"/>
<path d="M18.2021 5.64805V20.4104C18.2021 20.9072 17.7995 21.3104 17.3021 21.3104H4.51548C4.01748 21.3104 3.61548 20.9072 3.61548 20.4104V5.64805C3.61548 5.15125 4.01748 4.74805 4.51548 4.74805H17.3021C17.7995 4.74805 18.2021 5.15119 18.2021 5.64805Z" fill="#F7F7F7"/>
<path d="M13.6099 3.10309H13.2415V2.01829C13.2415 1.81069 13.0735 1.64209 12.8653 1.64209H8.95208C8.74388 1.64209 8.57588 1.81069 8.57588 2.01829V3.10309H8.20748C7.92008 3.10309 7.68848 3.33589 7.68848 3.62269V5.18929H14.1289V3.62269C14.1289 3.33589 13.8967 3.10309 13.6099 3.10309ZM12.4688 2.78143H9.3494V2.33803C9.3494 2.17243 9.4838 2.03863 9.6494 2.03863H12.1688C12.3344 2.03863 12.4688 2.17243 12.4688 2.33803V2.78143Z" fill="#0B4870"/>
<path d="M6.99646 7.95709V8.74741C6.99643 8.81682 6.96883 8.88337 6.91974 8.93244C6.87065 8.98151 6.80409 9.00907 6.73468 9.00907H5.63434C5.59996 9.0091 5.56592 9.00235 5.53416 8.98921C5.5024 8.97607 5.47353 8.9568 5.44922 8.93249C5.42491 8.90819 5.40563 8.87934 5.39247 8.84758C5.37932 8.81582 5.37255 8.78179 5.37256 8.74741V7.95709C5.37254 7.92271 5.3793 7.88866 5.39245 7.85689C5.4056 7.82513 5.42489 7.79626 5.4492 7.77195C5.47351 7.74764 5.50237 7.72836 5.53414 7.71521C5.56591 7.70206 5.59996 7.6953 5.63434 7.69531H6.73468C6.80411 7.69531 6.87069 7.72289 6.91979 7.77199C6.96888 7.82108 6.99646 7.88766 6.99646 7.95709Z" fill="#FFBE55"/>
<path d="M12.5817 9.78091C12.5817 10.0185 12.3885 10.2117 12.1503 10.2117H8.08412C7.96987 10.2117 7.8603 10.1663 7.77952 10.0855C7.69873 10.0047 7.65334 9.89516 7.65332 9.78091C7.65332 9.66151 7.70132 9.55405 7.77932 9.47611C7.81932 9.43607 7.86684 9.40432 7.91915 9.3827C7.97145 9.36107 8.02752 9.35 8.08412 9.35011H12.1503C12.3885 9.35011 12.5817 9.54265 12.5817 9.78091ZM16.4451 8.12665C16.4451 8.36419 16.2519 8.55745 16.0137 8.55745H8.08412C7.96987 8.55744 7.8603 8.51204 7.77952 8.43126C7.69873 8.35047 7.65334 8.2409 7.65332 8.12665C7.65332 8.00785 7.70132 7.89991 7.77932 7.82185C7.85732 7.74379 7.96532 7.69531 8.08412 7.69531H16.0137C16.1281 7.69533 16.2378 7.74078 16.3187 7.82166C16.3996 7.90255 16.4451 8.01225 16.4451 8.12665Z" fill="#D3D3D3"/>
<path d="M6.99646 12.0333V12.8236C6.99643 12.893 6.96883 12.9595 6.91974 13.0086C6.87065 13.0577 6.80409 13.0852 6.73468 13.0852H5.63434C5.59996 13.0853 5.56592 13.0785 5.53416 13.0654C5.5024 13.0522 5.47353 13.033 5.44922 13.0087C5.42491 12.9844 5.40563 12.9555 5.39247 12.9238C5.37932 12.892 5.37255 12.858 5.37256 12.8236V12.0333C5.37254 11.9989 5.3793 11.9648 5.39245 11.9331C5.4056 11.9013 5.42489 11.8724 5.4492 11.8481C5.47351 11.8238 5.50237 11.8045 5.53414 11.7914C5.56591 11.7782 5.59996 11.7715 5.63434 11.7715H6.73468C6.80411 11.7715 6.87069 11.7991 6.91979 11.8482C6.96888 11.8973 6.99646 11.9638 6.99646 12.0333Z" fill="#FFBE55"/>
<path d="M12.5817 13.8565C12.5817 14.0941 12.3885 14.2873 12.1503 14.2873H8.08412C7.96987 14.2873 7.8603 14.2419 7.77952 14.1611C7.69873 14.0804 7.65334 13.9708 7.65332 13.8565C7.65332 13.7371 7.70132 13.6297 7.77932 13.5517C7.81932 13.5117 7.86684 13.4799 7.91915 13.4583C7.97145 13.4367 8.02752 13.4256 8.08412 13.4257H12.1503C12.3885 13.4258 12.5817 13.6183 12.5817 13.8565ZM16.4451 12.2023C16.4451 12.4399 16.2519 12.6331 16.0137 12.6331H8.08412C7.96987 12.6331 7.8603 12.5877 7.77952 12.5069C7.69873 12.4262 7.65334 12.3166 7.65332 12.2023C7.65332 12.0835 7.70132 11.9756 7.77932 11.8975C7.85732 11.8195 7.96532 11.771 8.08412 11.771H16.0137C16.1281 11.771 16.2378 11.8164 16.3187 11.8973C16.3996 11.9782 16.4451 12.0879 16.4451 12.2023Z" fill="#D3D3D3"/>
<path d="M6.99646 16.1089V16.8993C6.99643 16.9687 6.96883 17.0352 6.91974 17.0843C6.87065 17.1334 6.80409 17.1609 6.73468 17.1609H5.63434C5.59996 17.161 5.56592 17.1542 5.53416 17.1411C5.5024 17.1279 5.47353 17.1086 5.44922 17.0843C5.42491 17.06 5.40563 17.0312 5.39247 16.9994C5.37932 16.9677 5.37255 16.9336 5.37256 16.8993V16.1089C5.37254 16.0746 5.3793 16.0405 5.39245 16.0087C5.4056 15.977 5.42489 15.9481 5.4492 15.9238C5.47351 15.8995 5.50237 15.8802 5.53414 15.8671C5.56591 15.8539 5.59996 15.8472 5.63434 15.8472H6.73468C6.80411 15.8472 6.87069 15.8747 6.91979 15.9238C6.96888 15.9729 6.99646 16.0395 6.99646 16.1089Z" fill="#FFBE55"/>
<path d="M12.5817 17.9327C12.5817 18.1702 12.3885 18.3635 12.1503 18.3635H8.08412C7.96987 18.3635 7.8603 18.3181 7.77952 18.2373C7.69873 18.1565 7.65334 18.047 7.65332 17.9327C7.65332 17.8133 7.70132 17.7058 7.77932 17.6279C7.81932 17.5879 7.86684 17.5561 7.91915 17.5345C7.97145 17.5129 8.02752 17.5018 8.08412 17.5019H12.1503C12.3885 17.5019 12.5817 17.6944 12.5817 17.9327ZM16.4451 16.2785C16.4451 16.516 16.2519 16.7093 16.0137 16.7093H8.08412C7.96987 16.7093 7.8603 16.6639 7.77952 16.5831C7.69873 16.5023 7.65334 16.3928 7.65332 16.2785C7.65332 16.1597 7.70132 16.0518 7.77932 15.9737C7.85732 15.8956 7.96532 15.8472 8.08412 15.8472H16.0137C16.1281 15.8472 16.2378 15.8926 16.3187 15.9735C16.3996 16.0544 16.4451 16.1641 16.4451 16.2785Z" fill="#D3D3D3"/>
<path d="M20.9617 9.3877V17.5586C20.9617 18.0136 21.334 18.1377 21.7891 18.1377C22.2442 18.1377 22.6165 18.0136 22.6165 17.5586V9.3877H20.9617Z" fill="#FFBE55"/>
<path d="M22.6165 9.18086V8.3741C22.6165 7.919 22.2442 7.79492 21.7891 7.79492C21.334 7.79492 20.9617 7.919 20.9617 8.3741V9.18086H22.6165Z" fill="#2A94F4"/>
<path d="M20.9617 17.7861L21.7891 19.3169L22.6165 17.7861H20.9617Z" fill="#FFE3CA"/>
<path d="M21.4375 18.6338L21.7892 19.3164L22.1408 18.6338H21.4375Z" fill="#0B4870"/>
<path d="M20.9617 9.18066H22.6165V9.38748H20.9617V9.18066Z" fill="#D3D3D3"/>
</svg>
