<svg width="48" height="48" viewBox="0 0 48 48" fill="none" xmlns="http://www.w3.org/2000/svg">
<g clip-path="url(#clip0_456_491)">
<path d="M46.5497 12.1744C45.2897 7.53563 40.4663 2.71125 35.8275 1.45219C32.9831 0.7425 29.1731 0.0121875 24 0C18.8288 0.013125 15.0188 0.7425 12.1744 1.45219C7.53656 2.71219 2.71219 7.53563 1.45219 12.1744C0.743437 15.0178 0.013125 18.8288 0 24C0.013125 29.1722 0.743437 32.9831 1.45219 35.8266C2.71219 40.4653 7.53656 45.2887 12.1744 46.5487C15.0188 47.2584 18.8306 47.9878 24.0009 48.0009C29.1722 47.9878 32.9831 47.2584 35.8275 46.5487C40.4663 45.2887 45.2897 40.4653 46.5497 35.8266C47.2584 32.9831 47.9888 29.1703 48.0009 24C47.9888 18.8288 47.2584 15.0178 46.5497 12.1744Z" fill="#E6F1F4"/>
<path d="M41.6894 34.3331C40.7013 32.684 36.9166 30.9702 33.2781 30.5231C30.1968 30.1731 27.098 30.0006 23.9969 30.0065C20.8958 30.0006 17.7969 30.1731 14.7156 30.5231C11.0772 30.9702 7.2925 32.684 6.30438 34.3331C5.755 35.3437 5.18219 36.6974 5.17188 38.5312C5.18219 40.3687 5.75406 41.7187 6.31094 42.734C7.29906 44.3821 11.0837 46.0959 14.7222 46.544C17.8035 46.8931 20.9024 47.0653 24.0034 47.0596C27.1045 47.0653 30.2033 46.8931 33.2847 46.544C36.9231 46.0959 40.7078 44.3821 41.6959 42.734C42.2519 41.7234 42.8209 40.3687 42.835 38.5312C42.8181 36.6974 42.2453 35.3437 41.6894 34.3331Z" fill="url(#paint0_radial_456_491)"/>
<path d="M34.4915 16.1251C33.9922 16.1374 33.497 16.2182 33.0196 16.3651C32.385 11.6963 28.4353 8.05039 23.6587 8.04102C19.7625 8.04102 16.4175 10.4785 14.9709 13.8891C14.8578 13.8798 14.7425 13.8751 14.625 13.8751C10.9856 13.8338 8.03809 16.682 8.03809 20.2791C8.03809 23.8763 10.9818 27.1051 14.6203 27.3216C21.2409 27.6865 27.8772 27.6649 34.4953 27.257C37.5168 27.0582 39.9609 24.377 39.9609 21.3882C39.9609 18.3995 37.514 16.0576 34.4915 16.1251Z" fill="url(#paint1_linear_456_491)"/>
<path d="M28.9177 33.1958L25.059 29.338C24.7779 29.0584 24.3975 28.9014 24.001 28.9014C23.6045 28.9014 23.2241 29.0584 22.943 29.338L19.0843 33.1958C18.8358 33.4825 18.7052 33.8526 18.7187 34.2317C18.7322 34.6108 18.8889 34.9707 19.1571 35.239C19.4253 35.5072 19.7852 35.6638 20.1643 35.6773C20.5434 35.6909 20.9136 35.5602 21.2002 35.3118L22.5043 34.0077V38.4515C22.5311 38.83 22.7004 39.1843 22.978 39.443C23.2557 39.7016 23.6211 39.8455 24.0005 39.8455C24.38 39.8455 24.7454 39.7016 25.023 39.443C25.3007 39.1843 25.47 38.83 25.4968 38.4515V34.0077L26.8018 35.3118C27.0884 35.5602 27.4586 35.6909 27.8377 35.6773C28.2168 35.6638 28.5767 35.5072 28.8449 35.239C29.1131 34.9707 29.2698 34.6108 29.2833 34.2317C29.2968 33.8526 29.1662 33.4825 28.9177 33.1958Z" fill="url(#paint2_linear_456_491)"/>
</g>
<defs>
<radialGradient id="paint0_radial_456_491" cx="0" cy="0" r="1" gradientUnits="userSpaceOnUse" gradientTransform="translate(23.9997 35.7208) scale(18.8278 8.47252)">
<stop stop-color="#78A0B5" stop-opacity="0.6"/>
<stop offset="1" stop-color="#78A0B5" stop-opacity="0"/>
</radialGradient>
<linearGradient id="paint1_linear_456_491" x1="33.2793" y1="30.4548" x2="14.2518" y2="11.4273" gradientUnits="userSpaceOnUse">
<stop stop-color="#BCE4ED"/>
<stop offset="0.57" stop-color="white"/>
<stop offset="1" stop-color="white"/>
</linearGradient>
<linearGradient id="paint2_linear_456_491" x1="27.0727" y1="37.4952" x2="20.9293" y2="31.3518" gradientUnits="userSpaceOnUse">
<stop stop-color="#34344F"/>
<stop offset="0.26" stop-color="#3B3B57"/>
<stop offset="0.66" stop-color="#50506D"/>
<stop offset="1" stop-color="#666684"/>
</linearGradient>
<clipPath id="clip0_456_491">
<rect width="48" height="48" fill="white"/>
</clipPath>
</defs>
</svg>
