<svg width="24" height="24" viewBox="0 0 24 24" fill="none" xmlns="http://www.w3.org/2000/svg">
<g clip-path="url(#clip0_21_55)">
<path d="M20.2201 16.92C20.3247 16.9213 20.4285 16.9018 20.5255 16.8627C20.6225 16.8236 20.7108 16.7656 20.7852 16.6921C20.8596 16.6187 20.9187 16.5311 20.959 16.4346C20.9993 16.3381 21.0201 16.2346 21.0201 16.13C21.0238 16.0857 21.017 16.0411 21.0001 16C20.6901 13.5 19.2601 11.46 16.5401 11.46C13.8201 11.46 12.3501 13.22 12.0701 16C12.0505 16.2118 12.115 16.4229 12.2497 16.5875C12.3845 16.7522 12.5786 16.8572 12.7901 16.88H20.2201V16.92Z" fill="#0078D4"/>
<path opacity="0.8" d="M16.5499 12.0899C16.067 12.0941 15.5937 11.9549 15.1899 11.6899L16.5399 15.2099L17.8699 11.7199C17.4722 11.9619 17.0155 12.0899 16.5499 12.0899Z" fill="white"/>
<path d="M16.55 12.0898C17.9363 12.0898 19.06 10.9661 19.06 9.57982C19.06 8.19359 17.9363 7.06982 16.55 7.06982C15.1638 7.06982 14.04 8.19359 14.04 9.57982C14.04 10.9661 15.1638 12.0898 16.55 12.0898Z" fill="#0078D4"/>
<path d="M15.1901 19.36C15.5057 19.36 15.8083 19.2346 16.0315 19.0115C16.2547 18.7883 16.3801 18.4856 16.3801 18.17C16.385 18.1235 16.385 18.0765 16.3801 18.03C15.9101 14.29 13.7801 11.25 9.72005 11.25C5.66005 11.25 3.44005 13.83 3.00005 18C2.9693 18.3154 3.06455 18.6301 3.26501 18.8756C3.46547 19.121 3.75487 19.2772 4.07005 19.31H15.1701L15.1901 19.36Z" fill="url(#paint0_linear_21_55)"/>
<path opacity="0.8" d="M9.77002 12.14C9.05974 12.1351 8.36573 11.9269 7.77002 11.54L9.77002 16.79L11.77 11.58C11.1681 11.9483 10.4757 12.1422 9.77002 12.14Z" fill="white"/>
<path d="M9.73999 12.1401C11.8111 12.1401 13.49 10.4612 13.49 8.39014C13.49 6.31907 11.8111 4.64014 9.73999 4.64014C7.66892 4.64014 5.98999 6.31907 5.98999 8.39014C5.98999 10.4612 7.66892 12.1401 9.73999 12.1401Z" fill="url(#paint1_linear_21_55)"/>
</g>
<defs>
<linearGradient id="paint0_linear_21_55" x1="9.70005" y1="10.26" x2="9.70005" y2="21.36" gradientUnits="userSpaceOnUse">
<stop offset="0.22" stop-color="#32D4F5"/>
<stop offset="1" stop-color="#198AB3"/>
</linearGradient>
<linearGradient id="paint1_linear_21_55" x1="9.41999" y1="4.32014" x2="10.23" y2="14.3901" gradientUnits="userSpaceOnUse">
<stop offset="0.22" stop-color="#32D4F5"/>
<stop offset="1" stop-color="#198AB3"/>
</linearGradient>
<clipPath id="clip0_21_55">
<rect width="18" height="18" fill="white" transform="translate(3 3)"/>
</clipPath>
</defs>
</svg>
