<svg width="24" height="24" viewBox="0 0 24 24" fill="none" xmlns="http://www.w3.org/2000/svg">
<path d="M21.3675 13.1402L19.35 15.1652V18.0227C19.35 18.9152 18.63 19.6352 17.7375 19.6352H14.88L12.855 21.6602C12.225 22.2902 11.205 22.2902 10.5675 21.6602L8.55002 19.6352H5.69252C4.80002 19.6352 4.07252 18.9152 4.07252 18.0227V15.1652L2.05502 13.1402C1.42502 12.5102 1.42502 11.4902 2.05502 10.8602L4.07252 8.83518V5.97768C4.07252 5.08518 4.80002 4.36518 5.69252 4.36518H8.55002L10.5675 2.34018C11.205 1.71018 12.225 1.71018 12.855 2.34018L14.88 4.36518H17.7375C18.63 4.36518 19.35 5.08518 19.35 5.97768V8.83518L21.3675 10.8602C22.005 11.4902 22.005 12.5102 21.3675 13.1402Z" fill="#D32F2F"/>
<path d="M16.2824 7.47035L7.76992 15.9903C7.67992 16.0728 7.56742 16.1178 7.45492 16.1178C7.34242 16.1178 7.22992 16.0728 7.13992 15.9903C7.09492 15.9453 7.06492 15.8928 7.04242 15.8403V15.8328C6.98242 15.6753 7.01242 15.4878 7.13992 15.3603L15.6524 6.84785C15.7874 6.72035 15.9749 6.68285 16.1399 6.75035C16.1924 6.77285 16.2449 6.81035 16.2824 6.84785C16.4549 7.02035 16.4549 7.29785 16.2824 7.47035ZM13.3799 15.8628C12.7274 16.1103 12.0074 15.8928 11.6024 15.3753C11.5949 15.3753 11.5949 15.3678 11.5949 15.3678C11.4974 15.2403 11.4224 15.1053 11.3624 14.9478C11.0549 14.1378 11.4674 13.2303 12.2774 12.9303C12.8174 12.7278 13.3949 12.8403 13.8149 13.1778C14.0249 13.3428 14.1973 13.5753 14.3024 13.8453C14.6024 14.6553 14.1899 15.5628 13.3799 15.8628ZM11.1449 9.90035C10.4924 10.1478 9.78 9.93035 9.36742 9.41285C9.26992 9.28535 9.18742 9.14285 9.1275 8.98535C8.82 8.17535 9.2325 7.26785 10.0425 6.96785C10.5825 6.76535 11.1675 6.87785 11.58 7.21535C11.5875 7.22285 11.58 7.22285 11.58 7.22285C11.7975 7.38035 11.9625 7.61285 12.0675 7.88285C12.3674 8.69285 11.9549 9.60035 11.1449 9.90035Z" fill="#E0E0E0"/>
<path d="M21.3674 13.1402L19.3499 15.1652V18.0227C19.3499 18.9152 18.6299 19.6352 17.7374 19.6352H16.9724V4.36523H17.7374C18.6299 4.36523 19.3499 5.08523 19.3499 5.97773V8.83523L21.3674 10.8602C22.0049 11.4902 22.0049 12.5102 21.3674 13.1402Z" fill="#B71C1C"/>
<path d="M16.0424 7.23035L7.52992 15.7428C7.43992 15.8328 7.32742 15.8778 7.21492 15.8778C7.15492 15.8778 7.09492 15.8628 7.04242 15.8403V15.8328C6.98242 15.6753 7.01242 15.4878 7.13992 15.3603L15.6524 6.84785C15.7874 6.72035 15.9749 6.68285 16.1399 6.75035C16.2074 6.91535 16.1699 7.10285 16.0424 7.23035ZM13.1399 15.6228C12.5999 15.8253 12.0149 15.7129 11.6024 15.3753C11.5949 15.3753 11.5949 15.3678 11.5949 15.3678C11.4974 15.2403 11.4224 15.1053 11.3624 14.9478C11.0549 14.1378 11.4674 13.2303 12.2774 12.9303C12.8174 12.7278 13.3949 12.8403 13.8149 13.1778C13.9123 13.3053 13.9949 13.4478 14.0548 13.6053C14.3624 14.4153 13.9499 15.3228 13.1399 15.6228ZM10.9049 9.66035C10.3649 9.86285 9.77992 9.75035 9.36742 9.41285C9.26992 9.28535 9.18742 9.14285 9.1275 8.98535C8.82 8.17535 9.2325 7.26785 10.0425 6.96785C10.5825 6.76535 11.1675 6.87785 11.58 7.21535C11.5875 7.22285 11.58 7.22285 11.58 7.22285C11.685 7.35035 11.76 7.48535 11.82 7.64285C12.1274 8.45285 11.7149 9.36035 10.9049 9.66035Z" fill="#EEEEEE"/>
</svg>
