<svg width="24" height="24" viewBox="0 0 24 24" fill="none" xmlns="http://www.w3.org/2000/svg">
<path d="M21.375 12C21.375 12.5967 21.6121 13.169 22.034 13.591C22.456 14.0129 23.0283 14.25 23.625 14.25V19.125H0.375V14.25C0.971737 14.25 1.54403 14.0129 1.96599 13.591C2.38795 13.169 2.625 12.5967 2.625 12C2.625 11.4033 2.38795 10.831 1.96599 10.409C1.54403 9.98705 0.971737 9.75 0.375 9.75V4.875H23.625V9.75C23.0283 9.75 22.456 9.98705 22.034 10.409C21.6121 10.831 21.375 11.4033 21.375 12Z" fill="url(#paint0_linear_36_49)"/>
<path d="M23.625 18H0.375V19.125H23.625V18Z" fill="#F6B756"/>
<path d="M8.625 6.375C8.83211 6.375 9 6.20711 9 6C9 5.79289 8.83211 5.625 8.625 5.625C8.41789 5.625 8.25 5.79289 8.25 6C8.25 6.20711 8.41789 6.375 8.625 6.375Z" fill="#DD8B37"/>
<path d="M8.625 7.875C8.83211 7.875 9 7.70711 9 7.5C9 7.29289 8.83211 7.125 8.625 7.125C8.41789 7.125 8.25 7.29289 8.25 7.5C8.25 7.70711 8.41789 7.875 8.625 7.875Z" fill="#DD8B37"/>
<path d="M8.625 9.375C8.83211 9.375 9 9.20711 9 9C9 8.79289 8.83211 8.625 8.625 8.625C8.41789 8.625 8.25 8.79289 8.25 9C8.25 9.20711 8.41789 9.375 8.625 9.375Z" fill="#DD8B37"/>
<path d="M8.625 10.875C8.83211 10.875 9 10.7071 9 10.5C9 10.2929 8.83211 10.125 8.625 10.125C8.41789 10.125 8.25 10.2929 8.25 10.5C8.25 10.7071 8.41789 10.875 8.625 10.875Z" fill="#DD8B37"/>
<path d="M8.625 12.375C8.83211 12.375 9 12.2071 9 12C9 11.7929 8.83211 11.625 8.625 11.625C8.41789 11.625 8.25 11.7929 8.25 12C8.25 12.2071 8.41789 12.375 8.625 12.375Z" fill="#DD8B37"/>
<path d="M8.625 13.875C8.83211 13.875 9 13.7071 9 13.5C9 13.2929 8.83211 13.125 8.625 13.125C8.41789 13.125 8.25 13.2929 8.25 13.5C8.25 13.7071 8.41789 13.875 8.625 13.875Z" fill="#DD8B37"/>
<path d="M8.625 15.375C8.83211 15.375 9 15.2071 9 15C9 14.7929 8.83211 14.625 8.625 14.625C8.41789 14.625 8.25 14.7929 8.25 15C8.25 15.2071 8.41789 15.375 8.625 15.375Z" fill="#DD8B37"/>
<path d="M8.625 16.875C8.83211 16.875 9 16.7071 9 16.5C9 16.2929 8.83211 16.125 8.625 16.125C8.41789 16.125 8.25 16.2929 8.25 16.5C8.25 16.7071 8.41789 16.875 8.625 16.875Z" fill="#DD8B37"/>
<path d="M8.625 18.375C8.83211 18.375 9 18.2071 9 18C9 17.7929 8.83211 17.625 8.625 17.625C8.41789 17.625 8.25 17.7929 8.25 18C8.25 18.2071 8.41789 18.375 8.625 18.375Z" fill="#DD8B37"/>
<path d="M12.375 15.7502C12.305 15.7501 12.2365 15.7303 12.1772 15.6932C12.1178 15.6562 12.0701 15.6032 12.0392 15.5404C12.0084 15.4776 11.9958 15.4074 12.0028 15.3378C12.0098 15.2682 12.0361 15.2019 12.0788 15.1465L17.3288 8.39648C17.3575 8.35411 17.3946 8.31807 17.4378 8.29058C17.481 8.26309 17.5293 8.24474 17.5799 8.23665C17.6304 8.22856 17.6821 8.2309 17.7317 8.24354C17.7813 8.25617 17.8278 8.27883 17.8683 8.31012C17.9088 8.34141 17.9425 8.38066 17.9673 8.42546C17.9921 8.47026 18.0074 8.51965 18.0124 8.5706C18.0173 8.62156 18.0118 8.67298 17.9961 8.72172C17.9805 8.77046 17.955 8.81547 17.9213 8.85398L12.6713 15.604C12.6363 15.6494 12.5915 15.6861 12.5401 15.7115C12.4887 15.7368 12.4323 15.7501 12.375 15.7502ZM17.25 15.7502C16.9533 15.7502 16.6633 15.6623 16.4166 15.4974C16.17 15.3326 15.9777 15.0983 15.8642 14.8243C15.7506 14.5502 15.7209 14.2486 15.7788 13.9576C15.8367 13.6666 15.9796 13.3993 16.1893 13.1896C16.3991 12.9798 16.6664 12.8369 16.9574 12.7791C17.2483 12.7212 17.5499 12.7509 17.824 12.8644C18.0981 12.9779 18.3324 13.1702 18.4972 13.4169C18.662 13.6635 18.75 13.9536 18.75 14.2502C18.75 14.6481 18.592 15.0296 18.3107 15.3109C18.0294 15.5922 17.6478 15.7502 17.25 15.7502ZM17.25 13.5002C17.1017 13.5002 16.9567 13.5442 16.8333 13.6266C16.71 13.709 16.6139 13.8262 16.5571 13.9632C16.5003 14.1003 16.4855 14.2511 16.5144 14.3965C16.5434 14.542 16.6148 14.6757 16.7197 14.7806C16.8246 14.8855 16.9582 14.9569 17.1037 14.9858C17.2492 15.0148 17.4 14.9999 17.537 14.9431C17.6741 14.8864 17.7912 14.7902 17.8736 14.6669C17.956 14.5436 18 14.3986 18 14.2502C18 14.0513 17.921 13.8606 17.7803 13.7199C17.6397 13.5792 17.4489 13.5002 17.25 13.5002ZM12.75 11.2502C12.4533 11.2502 12.1633 11.1623 11.9166 10.9974C11.67 10.8326 11.4777 10.5983 11.3642 10.3243C11.2506 10.0502 11.2209 9.74857 11.2788 9.45759C11.3367 9.16662 11.4796 8.89935 11.6893 8.68957C11.8991 8.47979 12.1664 8.33693 12.4574 8.27905C12.7483 8.22117 13.0499 8.25088 13.324 8.36441C13.5981 8.47794 13.8324 8.6702 13.9972 8.91688C14.162 9.16355 14.25 9.45356 14.25 9.75023C14.25 10.1481 14.092 10.5296 13.8107 10.8109C13.5294 11.0922 13.1478 11.2502 12.75 11.2502ZM12.75 9.00023C12.6017 9.00023 12.4567 9.04422 12.3333 9.12663C12.21 9.20904 12.1139 9.32617 12.0571 9.46322C12.0003 9.60026 11.9855 9.75106 12.0144 9.89655C12.0434 10.042 12.1148 10.1757 12.2197 10.2806C12.3246 10.3854 12.4582 10.4569 12.6037 10.4858C12.7492 10.5148 12.9 10.4999 13.037 10.4431C13.1741 10.3864 13.2912 10.2902 13.3736 10.1669C13.456 10.0436 13.5 9.89857 13.5 9.75023C13.5 9.55132 13.421 9.36055 13.2803 9.2199C13.1397 9.07925 12.9489 9.00023 12.75 9.00023Z" fill="white"/>
<defs>
<linearGradient id="paint0_linear_36_49" x1="12" y1="19.125" x2="12" y2="4.875" gradientUnits="userSpaceOnUse">
<stop stop-color="#FBCC88"/>
<stop offset="1" stop-color="#FFE5C3"/>
</linearGradient>
</defs>
</svg>
