<svg width="24" height="24" viewBox="0 0 24 24" fill="none" xmlns="http://www.w3.org/2000/svg">
<path d="M19.5 7.37979C19.3582 6.97939 15.4629 5.77979 15.0379 5.77979H4.40313C3.07813 5.77979 2 6.85752 2 8.18252V19.5962C2 20.9212 3.07813 21.9993 4.40313 21.9993H13.9914C14.1957 21.9993 14.391 21.9181 14.5355 21.7739L19.4121 16.8974C19.5566 16.7532 19.6375 16.5575 19.6375 16.3536V8.18252C19.6375 7.90791 19.5914 7.63799 19.5 7.37979Z" fill="#FFD92E"/>
<path d="M19.6376 15.5845V16.3536C19.6376 16.5575 19.5568 16.7532 19.4123 16.8974L14.5357 21.7739C14.3912 21.9181 14.1958 21.9993 13.9916 21.9993H13.2224V16.3536C13.2224 15.9286 13.5669 15.5845 13.9916 15.5845H19.6376Z" fill="#FCBE00"/>
<path d="M9.83392 14.9342C9.63177 14.9342 9.43556 14.8544 9.29002 14.7089C9.11201 14.5309 9.03236 14.2771 9.07677 14.0293L9.60357 11.0903C9.63131 10.9356 9.70572 10.7932 9.81681 10.6821L17.7751 2.72374C18.7401 1.75874 20.3102 1.75877 21.2752 2.72374C21.7426 3.19116 22.0001 3.81268 22.0001 4.47374C22.0001 5.13479 21.7426 5.75631 21.2751 6.22374L13.3169 14.1821C13.2058 14.2931 13.0633 14.3676 12.9086 14.3953L9.96966 14.9222C9.92447 14.9302 9.87904 14.9342 9.83392 14.9342Z" fill="#6058AD"/>
</svg>
