<svg width="32" height="33" viewBox="0 0 32 33" fill="none" xmlns="http://www.w3.org/2000/svg">
<path fill-rule="evenodd" clip-rule="evenodd" d="M30 13.98C30 12.323 28.657 10.98 27 10.98C22.157 10.98 9.843 10.98 5 10.98C3.343 10.98 2 12.323 2 13.98C2 16.851 2 22.109 2 24.98C2 26.637 3.343 27.98 5 27.98C9.843 27.98 22.157 27.98 27 27.98C28.657 27.98 30 26.637 30 24.98V13.98Z" fill="#F5F5F5"/>
<path fill-rule="evenodd" clip-rule="evenodd" d="M30 23.98V24.98C30 26.637 28.657 27.98 27 27.98C22.157 27.98 9.843 27.98 5 27.98C3.343 27.98 2 26.637 2 24.98V23.98C2 25.637 3.343 26.98 5 26.98C9.843 26.98 22.157 26.98 27 26.98C28.657 26.98 30 25.637 30 23.98Z" fill="#E0E0E0"/>
<path fill-rule="evenodd" clip-rule="evenodd" d="M20 22.98H25C25.552 22.98 26 22.532 26 21.98C26 21.428 25.552 20.98 25 20.98H20C19.448 20.98 19 21.428 19 21.98C19 22.532 19.448 22.98 20 22.98ZM20 18.98H24C24.552 18.98 25 18.532 25 17.98C25 17.428 24.552 16.98 24 16.98H20C19.448 16.98 19 17.428 19 17.98C19 18.532 19.448 18.98 20 18.98Z" fill="#757575"/>
<path d="M12 12.98C13.933 12.98 15.5 11.413 15.5 9.47998C15.5 7.54698 13.933 5.97998 12 5.97998C10.067 5.97998 8.5 7.54698 8.5 9.47998C8.5 11.413 10.067 12.98 12 12.98Z" fill="#90CAF9"/>
<path fill-rule="evenodd" clip-rule="evenodd" d="M15.464 8.97998C15.488 9.14298 15.5 9.30998 15.5 9.47998C15.5 11.412 13.932 12.98 12 12.98C10.068 12.98 8.5 11.412 8.5 9.47998C8.5 9.30998 8.512 9.14298 8.536 8.97998C8.779 10.676 10.238 11.98 12 11.98C13.762 11.98 15.221 10.676 15.464 8.97998Z" fill="#64B5F6"/>
<path fill-rule="evenodd" clip-rule="evenodd" d="M17.2518 18.113C16.8798 15.734 14.8308 13.98 12.4228 13.98C12.1418 13.98 11.8578 13.98 11.5768 13.98C9.16885 13.98 7.11985 15.734 6.74785 18.113C6.55085 19.376 6.33785 20.738 6.19185 21.671C6.10185 22.249 6.26885 22.837 6.64885 23.281C7.02885 23.725 7.58385 23.98 8.16785 23.98C10.0928 23.98 13.9068 23.98 15.8318 23.98C16.4158 23.98 16.9708 23.725 17.3508 23.281C17.7308 22.837 17.8978 22.249 17.8078 21.672L17.2518 18.113Z" fill="#42A5F5"/>
<path fill-rule="evenodd" clip-rule="evenodd" d="M6.33285 20.7739C6.41085 20.9559 6.51685 21.1269 6.64885 21.2809C7.02885 21.7249 7.58385 21.9799 8.16785 21.9799C10.0928 21.9799 13.9068 21.9799 15.8318 21.9799C16.4158 21.9799 16.9708 21.7249 17.3508 21.2809C17.4828 21.1269 17.5888 20.9559 17.6668 20.7739L17.8078 21.6719C17.8978 22.2489 17.7308 22.8369 17.3508 23.2809C16.9708 23.7249 16.4158 23.9799 15.8318 23.9799C13.9068 23.9799 10.0928 23.9799 8.16785 23.9799C7.58385 23.9799 7.02885 23.7249 6.64885 23.2809C6.26885 22.8369 6.10185 22.2489 6.19185 21.6709L6.33285 20.7739Z" fill="#2196F3"/>
</svg>
