<svg width="149" height="43" viewBox="0 0 149 43" fill="none" xmlns="http://www.w3.org/2000/svg">
<path d="M28.3051 11.172L22.1521 5L6 21.2L22.1521 37.4L28.3051 31.2285L18.3063 21.2L28.3051 11.172ZM24.8756 21.2L31.4452 14.611L38.0146 21.2L31.4448 27.7889L24.8756 21.2ZM99.0208 16.08H109.8C110.424 16.08 110.872 16.254 111.144 16.603C111.416 16.951 111.553 17.52 111.553 18.309C111.553 19.283 111.448 19.934 111.241 20.262C111.032 20.59 110.552 20.852 109.8 21.046C110.44 21.159 110.876 21.3537 111.108 21.6305C111.428 22.0201 111.589 22.6454 111.589 23.5065C111.589 24.7573 111.316 25.5926 110.772 26.0128C110.508 26.2179 109.979 26.3203 109.188 26.3203H99.0208V16.08ZM52.9738 16.08V18.109H42.747V24.0908H52.9738V26.3202H42.963C42.0028 26.3202 41.3624 25.9464 41.0424 25.1978C40.8263 24.7264 40.7183 23.968 40.7183 22.9223V18.432C40.7183 17.407 40.9103 16.756 41.2946 16.479C41.6786 16.213 42.3028 16.08 43.1669 16.08H52.9738ZM54.9062 16.08H56.9467V24.137H65.186V26.3202H54.9062V16.08ZM83.1767 16.08V18.109H72.9494V24.0908H83.1767V26.3202H73.1655C72.2054 26.3202 71.565 25.9464 71.2453 25.1978C71.029 24.7264 70.921 23.968 70.921 22.9223V18.432C70.921 17.407 71.1129 16.756 71.4972 16.479C71.8813 16.213 72.5054 16.08 73.3696 16.08H83.1767ZM113.497 16.08H115.393V24.2446H124.119V16.08H125.992V24.0138C125.992 25.5514 125.308 26.3202 123.94 26.3202H115.549C114.821 26.3202 114.297 26.1002 113.977 25.6591C113.656 25.2187 113.497 24.5008 113.497 23.5066V16.08ZM84.8687 16.08H86.9097V20.108L93.5709 16.11H97.3288L89.1779 20.969L98.1205 26.3202H94.3038L86.9097 21.7844V26.3202H84.8687V16.08ZM127.013 16.08H129.917L134.863 21.046L139.688 16.08H142.436L135.751 22.7685V26.3202H133.71V22.7685L127.013 16.08ZM67.0562 26.3202H69.0968V16.0796H67.0562V26.3202ZM101.037 24.0907H109.619V22.1379H101.037V24.0907ZM101.037 20.031H109.619V18.1551H101.037V20.031Z" fill="#FF0000"/>
<path d="M6 21.2L22.1521 37.3999L28.3051 31.2285L18.3064 21.2H6ZM38.0146 21.2L31.4449 27.7889L24.8756 21.2H38.0146Z" fill="#AE0827"/>
<path d="M54.1708 35.4342V34.6002H54.8487V35.4342H54.1708ZM65.3291 30.1697H66.1176V33.1599H69.7079V33.9703H65.3291V30.1697ZM45.736 30.1697V30.9229H41.7838V33.1429H45.736V33.9703H41.8673C41.4962 33.9703 41.2489 33.8314 41.1251 33.5538C41.0418 33.3787 41 33.0972 41 32.7092V31.0428C41 30.6625 41.0742 30.4208 41.2225 30.3182C41.371 30.2191 41.6123 30.1697 41.9462 30.1697H45.736ZM84.7742 30.1697H85.507V33.1998H88.879V30.1697H89.6028V33.1142C89.6028 33.6849 89.3386 33.9703 88.8092 33.9703H85.5668C85.2856 33.9703 85.0832 33.8886 84.9596 33.7248C84.836 33.5613 84.7742 33.2951 84.7742 32.926V30.1697ZM46.3899 30.1697H47.1784V31.6649H50.5553V30.1697H51.3485V33.9703H50.56V32.4181H47.1832V33.9703H46.3899V30.1697ZM57.6708 30.1697H58.8259L62.0358 33.2341V30.1697H62.8288V33.9703H61.6135L58.4594 30.9686V33.9703H57.6708V30.1697ZM78.1827 30.1697H79.2076L81.096 33.1599L82.9835 30.1697H83.9994V33.9703H83.3035V31.0827L81.4849 33.9703H80.78L78.8926 31.14L78.9484 33.9703H78.1827V30.1697ZM69.8516 33.9703L72.4819 30.124L73.3909 30.1128L76.058 33.9703H75.0928L74.5365 33.1315H71.271L70.7701 33.9703H69.8516ZM56.9473 31.271V33.0116C56.9473 33.2095 56.9202 33.3845 56.866 33.5365C56.8119 33.6889 56.7416 33.7877 56.655 33.8333C56.488 33.9246 56.2467 33.9702 55.9314 33.9702H52.972C52.6567 33.9702 52.4277 33.8952 52.2856 33.7449C52.1433 33.5945 52.0721 33.3522 52.0721 33.0172V31.271C52.0721 30.8602 52.1186 30.5902 52.2112 30.4607C52.3504 30.2667 52.6458 30.1697 53.0972 30.1697H56.0845C56.3781 30.1697 56.5955 30.2602 56.7362 30.4408C56.8769 30.6215 56.9473 30.8983 56.9473 31.271ZM89.895 33.9702L92.5252 30.124L93.4345 30.1127L96.1016 33.9702H95.1365L94.5801 33.1314H91.3148L90.8133 33.9702H89.895ZM52.8142 33.2056H56.2004V30.9686H52.8142V33.2056ZM91.8382 32.361L94.0467 32.3782L92.924 30.7519L91.8382 32.361ZM71.7953 32.361L74.0033 32.3781L72.8807 30.7518L71.7953 32.361ZM73.4976 29.7304H72.9688L72.4076 29H73.3027L73.4976 29.7304Z" fill="black"/>
</svg>
