<svg width="24" height="24" viewBox="0 0 24 24" fill="none" xmlns="http://www.w3.org/2000/svg">
<g clip-path="url(#clip0_21_73)">
<path fill-rule="evenodd" clip-rule="evenodd" d="M16.496 15.2149V20.9952L16.492 20.9991L11.9971 19.0765L11.9932 19.0703V13.29L11.9971 13.2968L16.492 15.2194L16.496 15.2149Z" fill="#FCD062"/>
<path fill-rule="evenodd" clip-rule="evenodd" d="M16.5 15.2175L20.9949 13.2949L20.9994 13.2876V19.0678L20.9949 19.0746L16.5006 20.9967L16.5 15.2175Z" fill="#F8AA3A"/>
<path fill-rule="evenodd" clip-rule="evenodd" d="M20.9948 13.2897L16.5004 11.3677H16.492L11.9971 13.2897V13.2948L16.492 15.2169L20.9948 13.2897Z" fill="#F8B84E"/>
<path fill-rule="evenodd" clip-rule="evenodd" d="M17.9435 11.9849L13.5239 13.9446V16.5676L14.3052 16.1822L15.0759 17.3382L15.0747 14.6101L19.4752 12.6396L17.9435 11.9849Z" fill="#E9EDED"/>
<path d="M19.5167 18.4957L18.3928 18.9767L17.2695 19.4571M18.3928 18.0396L17.2695 18.5199" stroke="#34485C" stroke-linecap="round" stroke-linejoin="round"/>
<path fill-rule="evenodd" clip-rule="evenodd" d="M7.50232 15.2149V20.9952L7.49839 20.9991L3.00345 19.0765L2.99951 19.0703V13.29L3.00345 13.2968L7.49839 15.2194L7.50232 15.2149Z" fill="#FCD062"/>
<path fill-rule="evenodd" clip-rule="evenodd" d="M7.5061 15.2175L12.001 13.2949L12.0055 13.2876V19.0678L12.001 19.0746L7.50667 20.9967L7.5061 15.2175Z" fill="#F8AA3A"/>
<path fill-rule="evenodd" clip-rule="evenodd" d="M12.0012 13.2897L7.50679 11.3677H7.49836L3.00342 13.2897V13.2948L7.49836 15.2169L12.0012 13.2897Z" fill="#F8B84E"/>
<path fill-rule="evenodd" clip-rule="evenodd" d="M8.94959 11.9849L4.53003 13.9446V16.5676L5.31134 16.1822L6.08197 17.3382L6.08084 14.6101L10.4813 12.6396L8.94959 11.9849Z" fill="#E9EDED"/>
<path d="M10.5228 18.4957L9.39895 18.9767L8.27563 19.4571M9.39895 18.0396L8.27563 18.5199" stroke="#34485C" stroke-linecap="round" stroke-linejoin="round"/>
<path fill-rule="evenodd" clip-rule="evenodd" d="M12.0056 7.52993V13.3102L12.0011 13.3141L7.50613 11.3915L7.5022 11.3853V5.60449L7.50613 5.61124L12.0011 7.53387L12.0056 7.52993Z" fill="#FCD062"/>
<path fill-rule="evenodd" clip-rule="evenodd" d="M12.009 7.53191L16.504 5.60985L16.5085 5.60254V11.3828L16.504 11.3895L12.0096 13.3116L12.009 7.53191Z" fill="#F8AA3A"/>
<path fill-rule="evenodd" clip-rule="evenodd" d="M16.5039 5.60517L12.0095 3.68311H12.001L7.5061 5.60461V5.60967L12.001 7.53173L16.5039 5.60517Z" fill="#F8B84E"/>
<path fill-rule="evenodd" clip-rule="evenodd" d="M13.4523 4.2998L9.03271 6.25955V8.88249L9.81403 8.49718L10.5847 9.65312L10.5835 6.92499L14.984 4.95455L13.4523 4.2998Z" fill="#E9EDED"/>
<path d="M15.0263 10.8107L13.9019 11.2916L12.7786 11.772M13.9019 10.3545L12.7786 10.8349" stroke="#34485C" stroke-linecap="round" stroke-linejoin="round"/>
</g>
<defs>
<clipPath id="clip0_21_73">
<rect width="18" height="18" fill="white" transform="translate(3 3)"/>
</clipPath>
</defs>
</svg>
