<svg width="24" height="24" viewBox="0 0 24 24" fill="none" xmlns="http://www.w3.org/2000/svg">
<path d="M17.1713 2.625H6.82875C6.31058 2.625 5.81364 2.83084 5.44724 3.19724C5.08084 3.56364 4.875 4.06058 4.875 4.57875V20.625C4.87477 20.7676 4.91522 20.9074 4.9916 21.0278C5.06798 21.1483 5.17714 21.2445 5.30625 21.3051C5.43537 21.3657 5.57909 21.3883 5.72057 21.3701C5.86204 21.3519 5.9954 21.2938 6.105 21.2025L7.19625 20.2913C7.3691 20.1469 7.58976 20.0727 7.81469 20.0831C8.03962 20.0935 8.25248 20.1878 8.41125 20.3475L9.22125 21.1537C9.35313 21.286 9.52962 21.3643 9.71619 21.3734C9.90276 21.3824 10.086 21.3214 10.23 21.2025L11.4225 20.205C11.5844 20.0695 11.7889 19.9953 12 19.9953C12.2111 19.9953 12.4156 20.0695 12.5775 20.205L13.77 21.1987C13.914 21.3177 14.0972 21.3786 14.2838 21.3696C14.4704 21.3606 14.6469 21.2823 14.7788 21.15L15.5888 20.3438C15.7475 20.1841 15.9604 20.0897 16.1853 20.0793C16.4102 20.0689 16.6309 20.1432 16.8038 20.2875L17.895 21.1987C18.0294 21.3119 18.1993 21.3743 18.375 21.375C18.4852 21.375 18.594 21.3506 18.6938 21.3038C18.8227 21.2432 18.9317 21.1473 19.008 21.0271C19.0844 20.9069 19.125 20.7674 19.125 20.625V4.57875C19.125 4.06058 18.9192 3.56364 18.5528 3.19724C18.1864 2.83084 17.6894 2.625 17.1713 2.625Z" fill="url(#paint0_linear_21_14)"/>
<path d="M8.625 6.75C9.03921 6.75 9.375 6.41421 9.375 6C9.375 5.58579 9.03921 5.25 8.625 5.25C8.21079 5.25 7.875 5.58579 7.875 6C7.875 6.41421 8.21079 6.75 8.625 6.75Z" fill="url(#paint1_linear_21_14)"/>
<path d="M15.375 6.75H11.625C11.4261 6.75 11.2353 6.67098 11.0947 6.53033C10.954 6.38968 10.875 6.19891 10.875 6C10.875 5.80109 10.954 5.61032 11.0947 5.46967C11.2353 5.32902 11.4261 5.25 11.625 5.25H15.375C15.5739 5.25 15.7647 5.32902 15.9053 5.46967C16.046 5.61032 16.125 5.80109 16.125 6C16.125 6.19891 16.046 6.38968 15.9053 6.53033C15.7647 6.67098 15.5739 6.75 15.375 6.75Z" fill="url(#paint2_linear_21_14)"/>
<path d="M8.625 9.75C9.03921 9.75 9.375 9.41421 9.375 9C9.375 8.58579 9.03921 8.25 8.625 8.25C8.21079 8.25 7.875 8.58579 7.875 9C7.875 9.41421 8.21079 9.75 8.625 9.75Z" fill="url(#paint3_linear_21_14)"/>
<path d="M15.375 9.75H11.625C11.4261 9.75 11.2353 9.67098 11.0947 9.53033C10.954 9.38968 10.875 9.19891 10.875 9C10.875 8.80109 10.954 8.61032 11.0947 8.46967C11.2353 8.32902 11.4261 8.25 11.625 8.25H15.375C15.5739 8.25 15.7647 8.32902 15.9053 8.46967C16.046 8.61032 16.125 8.80109 16.125 9C16.125 9.19891 16.046 9.38968 15.9053 9.53033C15.7647 9.67098 15.5739 9.75 15.375 9.75Z" fill="url(#paint4_linear_21_14)"/>
<path d="M8.625 12.75C9.03921 12.75 9.375 12.4142 9.375 12C9.375 11.5858 9.03921 11.25 8.625 11.25C8.21079 11.25 7.875 11.5858 7.875 12C7.875 12.4142 8.21079 12.75 8.625 12.75Z" fill="url(#paint5_linear_21_14)"/>
<path d="M15.375 12.75H11.625C11.4261 12.75 11.2353 12.671 11.0947 12.5303C10.954 12.3897 10.875 12.1989 10.875 12C10.875 11.8011 10.954 11.6103 11.0947 11.4697C11.2353 11.329 11.4261 11.25 11.625 11.25H15.375C15.5739 11.25 15.7647 11.329 15.9053 11.4697C16.046 11.6103 16.125 11.8011 16.125 12C16.125 12.1989 16.046 12.3897 15.9053 12.5303C15.7647 12.671 15.5739 12.75 15.375 12.75Z" fill="url(#paint6_linear_21_14)"/>
<defs>
<linearGradient id="paint0_linear_21_14" x1="10.68" y1="1.86375" x2="13.5863" y2="25.4213" gradientUnits="userSpaceOnUse">
<stop stop-color="#E3EFFC"/>
<stop offset="1" stop-color="#9CBFE5"/>
</linearGradient>
<linearGradient id="paint1_linear_21_14" x1="8.13375" y1="5.025" x2="13.3725" y2="15.435" gradientUnits="userSpaceOnUse">
<stop stop-color="#134287"/>
<stop offset="1" stop-color="#061F4A"/>
</linearGradient>
<linearGradient id="paint2_linear_21_14" x1="12.0225" y1="3.0675" x2="17.265" y2="13.4775" gradientUnits="userSpaceOnUse">
<stop stop-color="#134287"/>
<stop offset="1" stop-color="#061F4A"/>
</linearGradient>
<linearGradient id="paint3_linear_21_14" x1="7.23" y1="6.22875" x2="12.4688" y2="16.6425" gradientUnits="userSpaceOnUse">
<stop stop-color="#134287"/>
<stop offset="1" stop-color="#061F4A"/>
</linearGradient>
<linearGradient id="paint4_linear_21_14" x1="11.1188" y1="4.27125" x2="16.3612" y2="14.685" gradientUnits="userSpaceOnUse">
<stop stop-color="#134287"/>
<stop offset="1" stop-color="#061F4A"/>
</linearGradient>
<linearGradient id="paint5_linear_21_14" x1="6.32625" y1="7.4325" x2="11.5687" y2="17.8463" gradientUnits="userSpaceOnUse">
<stop stop-color="#134287"/>
<stop offset="1" stop-color="#061F4A"/>
</linearGradient>
<linearGradient id="paint6_linear_21_14" x1="10.2187" y1="5.475" x2="15.4575" y2="15.8888" gradientUnits="userSpaceOnUse">
<stop stop-color="#134287"/>
<stop offset="1" stop-color="#061F4A"/>
</linearGradient>
</defs>
</svg>
