<svg width="24" height="24" viewBox="0 0 24 24" fill="none" xmlns="http://www.w3.org/2000/svg">
<path d="M21.207 11.2932L18.207 8.29319C18.1141 8.20035 18.0038 8.12671 17.8824 8.07649C17.7611 8.02627 17.631 8.00044 17.4996 8.00049C17.3683 8.00053 17.2382 8.02645 17.1169 8.07676C16.9956 8.12707 16.8853 8.20078 16.7925 8.29369C16.6997 8.3866 16.626 8.49689 16.5758 8.61826C16.5256 8.73962 16.4998 8.8697 16.4998 9.00104C16.4998 9.13239 16.5258 9.26245 16.5761 9.38378C16.6264 9.50511 16.7001 9.61535 16.793 9.70819L18.086 11.0002H12.5C12.2348 11.0002 11.9804 11.1055 11.7929 11.2931C11.6054 11.4806 11.5 11.735 11.5 12.0002C11.5 12.2654 11.6054 12.5198 11.7929 12.7073C11.9804 12.8948 12.2348 13.0002 12.5 13.0002H18.086L16.793 14.2932C16.6975 14.3854 16.6213 14.4958 16.5689 14.6178C16.5165 14.7398 16.4889 14.871 16.4877 15.0038C16.4866 15.1366 16.5119 15.2682 16.5622 15.3911C16.6125 15.514 16.6867 15.6257 16.7806 15.7196C16.8745 15.8135 16.9862 15.8877 17.109 15.938C17.2319 15.9883 17.3636 16.0136 17.4964 16.0124C17.6292 16.0113 17.7604 15.9837 17.8824 15.9313C18.0044 15.8789 18.1148 15.8027 18.207 15.7072L21.207 12.7072C21.3 12.6143 21.3737 12.504 21.4241 12.3826C21.4744 12.2612 21.5003 12.1311 21.5003 11.9997C21.5003 11.8683 21.4744 11.7381 21.4241 11.6168C21.3737 11.4954 21.3 11.3851 21.207 11.2922V11.2932Z" fill="#6563FF"/>
<path d="M12.5 13C12.2348 13 11.9804 12.8946 11.7929 12.7071C11.6054 12.5196 11.5 12.2652 11.5 12C11.5 11.7348 11.6054 11.4804 11.7929 11.2929C11.9804 11.1054 12.2348 11 12.5 11H16.5V5C16.4992 4.20459 16.1829 3.44199 15.6204 2.87956C15.058 2.31712 14.2954 2.00079 13.5 2H5.5C4.70459 2.00079 3.94199 2.31712 3.37956 2.87956C2.81712 3.44199 2.50079 4.20459 2.5 5V19C2.50079 19.7954 2.81712 20.558 3.37956 21.1204C3.94199 21.6829 4.70459 21.9992 5.5 22H13.5C14.2954 21.9992 15.058 21.6829 15.6204 21.1204C16.1829 20.558 16.4992 19.7954 16.5 19V13H12.5Z" fill="#B2B1FF"/>
</svg>
