<svg width="24" height="24" viewBox="0 0 24 24" fill="none" xmlns="http://www.w3.org/2000/svg">
<path d="M12 10C14.2091 10 16 8.20914 16 6C16 3.79086 14.2091 2 12 2C9.79086 2 8 3.79086 8 6C8 8.20914 9.79086 10 12 10Z" fill="#6DBFF2"/>
<path d="M20.5 18.1C19.3 14.4 15.8 12 12 12C8.2 12 4.7 14.4 3.5 18.1C3.2 19 3.3 20 3.9 20.8C4.5 21.5 5.4 22 6.3 22H17.6C18.6 22 19.5 21.5 20.1 20.7C20.7 19.9 20.8 19 20.5 18.1Z" fill="#1F4C73"/>
<path d="M16 6C16 3.8 14.2 2 12 2V10C14.2 10 16 8.2 16 6Z" fill="#4CA2CC"/>
<path d="M20.1 20.7C20.7 19.9 20.8 18.9 20.5 18C19.3 14.4 15.8 12 12 12V22H17.7C18.6 22 19.5 21.5 20.1 20.7Z" fill="#0F324C"/>
</svg>
