<svg width="24" height="24" viewBox="0 0 24 24" fill="none" xmlns="http://www.w3.org/2000/svg">
<path d="M19.0695 4.92734C17.1937 3.0524 14.6499 1.9994 11.9977 2C9.34559 2.0006 6.80228 3.05474 4.92734 4.93052C3.0524 6.80631 1.9994 9.35008 2 12.0022C2.0006 14.6544 3.05474 17.1977 4.93052 19.0727C6.80631 20.9476 9.35008 22.0006 12.0022 22C14.6544 21.9994 17.1977 20.9453 19.0727 19.0695C20.9476 17.1937 22.0006 14.6499 22 11.9977C21.9994 9.34559 20.9453 6.80228 19.0695 4.92734ZM17.7786 17.7818C17.0193 18.542 16.1177 19.1452 15.1253 19.557C14.1329 19.9688 13.0691 20.1811 11.9947 20.1818C9.82474 20.1832 7.74313 19.3225 6.20778 17.789C4.67244 16.2556 3.80912 14.1751 3.80776 12.0051C3.80639 9.8352 4.66709 7.75359 6.20051 6.21824C7.73393 4.68289 9.81446 3.81958 11.9844 3.81821C14.1543 3.81685 16.236 4.67755 17.7713 6.21097C19.3067 7.74438 20.17 9.82491 20.1713 11.9949C20.1727 14.1648 19.312 16.2464 17.7786 17.7818ZM15.8513 9.4273L13.2786 12L15.8513 14.5727C16.0206 14.743 16.1157 14.9734 16.1157 15.2136C16.1157 15.4538 16.0206 15.6842 15.8513 15.8545C15.681 16.0238 15.4506 16.1189 15.2104 16.1189C14.9703 16.1189 14.7398 16.0238 14.5695 15.8545L11.9968 13.2818L9.42412 15.8545C9.25379 16.0238 9.02338 16.1189 8.78321 16.1189C8.54305 16.1189 8.31264 16.0238 8.14231 15.8545C7.97299 15.6842 7.87796 15.4538 7.87796 15.2136C7.87796 14.9734 7.97299 14.743 8.14231 14.5727L10.715 12L8.14231 9.4273C7.99338 9.25339 7.91556 9.02969 7.92439 8.80089C7.93323 8.5721 8.02808 8.35506 8.18998 8.19316C8.35188 8.03126 8.56892 7.93641 8.79771 7.92757C9.0265 7.91874 9.25021 7.99656 9.42412 8.14549L11.9968 10.7182L14.5695 8.14549C14.6505 8.04856 14.7509 7.96955 14.8641 7.91351C14.9773 7.85747 15.101 7.82562 15.2272 7.81999C15.3534 7.81436 15.4794 7.83507 15.5971 7.8808C15.7149 7.92653 15.8219 7.99628 15.9112 8.08561C16.0005 8.17495 16.0703 8.2819 16.116 8.39967C16.1618 8.51744 16.1825 8.64344 16.1768 8.76965C16.1712 8.89586 16.1393 9.01951 16.0833 9.13274C16.0273 9.24596 15.9483 9.34628 15.8513 9.4273Z" fill="url(#paint0_linear_32_20)"/>
<defs>
<linearGradient id="paint0_linear_32_20" x1="12.0005" y1="2.0001" x2="12.0005" y2="21.9999" gradientUnits="userSpaceOnUse">
<stop stop-color="#FFA68D"/>
<stop offset="1" stop-color="#FD3A84"/>
</linearGradient>
</defs>
</svg>
