<svg width="24" height="24" viewBox="0 0 24 24" fill="none" xmlns="http://www.w3.org/2000/svg">
<path d="M22.8302 10.8721C23.5495 10.2605 23.9807 9.58252 23.8465 8.93039C23.6909 8.17589 22.843 7.40714 21.9479 7.50839C20.992 7.61564 20.4366 8.48377 20.4981 9.77377C20.5161 10.1473 20.7655 10.5628 21.1821 10.9145C21.2241 10.9498 21.2672 10.9843 21.3111 11.0169C20.9297 11.2359 20.4932 11.4489 20.0065 11.6435L18.8815 12.0185L19.1189 12.7299L20.2645 12.347C20.8964 12.0943 21.5177 11.7826 22.0619 11.4343C22.5295 11.6165 23.0361 11.687 23.5251 11.6274L23.4336 10.883C23.2352 10.9081 23.0316 10.904 22.8302 10.8721ZM21.9974 10.5748C21.8804 10.5069 21.7694 10.4289 21.6655 10.3411C21.385 10.1045 21.253 9.86752 21.247 9.73777C21.2312 9.41189 21.2417 8.34164 22.0311 8.25352C22.0555 8.25089 22.0802 8.24977 22.1046 8.24977C22.5546 8.24977 23.0316 8.69414 23.1119 9.08189C23.1854 9.43777 22.7856 10.0014 21.9974 10.5748ZM5.5 6.93427V3.81239C5.5 2.98177 6.36587 2.75864 7 3.29527L9.2965 5.11589L5.5 6.93427Z" fill="#2D9739"/>
<path d="M3.36588 9.75H1.75C1.33562 9.75 1 10.2536 1 10.875V13.125C1 13.7464 1.33562 14.25 1.75 14.25H3.223L3.36588 9.75Z" fill="#44BC59"/>
<path d="M5.5 17.4404V20.2499C5.5 20.6643 5.83562 20.9999 6.25 20.9999H8.125C8.53938 20.9999 8.875 20.6643 8.875 20.2499V19.1549L5.5 17.4404ZM17.5 17.4404V20.2499C17.5 20.6643 17.1644 20.9999 16.75 20.9999H14.875C14.4606 20.9999 14.125 20.6643 14.125 20.2499V19.1549L17.5 17.4404Z" fill="#22712B"/>
<path d="M16.5201 6.24075C18.703 7.5675 20.125 9.73688 20.125 12.1875C20.125 16.2263 16.2636 19.5 11.5 19.5C6.73637 19.5 2.875 16.2263 2.875 12.1875C2.875 8.14875 6.73637 4.875 11.5 4.875C11.7618 4.875 12.0209 4.88475 12.277 4.90425L16.5201 6.24075Z" fill="#2D9739"/>
<path d="M16.5201 6.24075L12.2766 4.90425C12.0209 4.88475 11.7618 4.875 11.5 4.875C8.04025 4.875 5.05788 6.603 3.6835 9.09562C3.64638 9.372 3.625 9.6525 3.625 9.9375C3.625 13.9763 7.48637 17.25 12.25 17.25C15.7097 17.25 18.6921 15.522 20.0665 13.0294C20.1036 12.753 20.125 12.4725 20.125 12.1875C20.125 9.73688 18.703 7.5675 16.5201 6.24075Z" fill="#44BC59"/>
<path d="M7 12.0002C6.10525 12.0002 5.29562 11.4703 4.9375 10.6502L5.6245 10.3498C5.86375 10.8969 6.40338 11.2502 7 11.2502C7.82725 11.2502 8.5 10.5774 8.5 9.7502C8.5 9.27395 8.28138 8.83632 7.89963 8.55019L8.35 7.9502C8.92188 8.37957 9.25 9.03582 9.25 9.7502C9.25 10.9911 8.24088 12.0002 7 12.0002ZM11.5367 17.6304C10.054 17.6304 8.56825 17.2528 7.19388 16.4927L7.5565 15.8364C10.252 17.3259 13.4148 17.2131 16.0176 15.5342L16.1718 15.4348L16.5782 16.0652L16.4241 16.1646C14.9121 17.1399 13.2265 17.6304 11.5367 17.6304Z" fill="#B4E4BD"/>
<path d="M12.823 6.75C12.4667 6.35213 12.25 5.82637 12.25 5.25C12.25 4.00725 13.2573 3 14.5 3C15.7427 3 16.75 4.00725 16.75 5.25C16.75 6.29662 16.0356 7.17637 15.0677 7.42762L12.823 6.75Z" fill="#FFC239"/>
<path d="M14.5 3C13.9278 3 13.4069 3.21562 13.0098 3.56737C13.0956 5.2515 14.2893 6.64012 15.8785 7.01887C16.4061 6.60712 16.75 5.97112 16.75 5.25C16.75 4.00725 15.7428 3 14.5 3Z" fill="#FFD55D"/>
<path d="M15.778 8.78738C15.2927 7.7775 14.1287 7.125 12.8125 7.125C12.3992 7.125 11.998 7.18913 11.6185 7.31588L11.3811 6.60488C11.8367 6.45225 12.3186 6.375 12.8125 6.375C14.4149 6.375 15.8447 7.19437 16.4541 8.46225L15.778 8.78738Z" fill="#B4E4BD"/>
</svg>
