<svg width="24" height="24" viewBox="0 0 24 24" fill="none" xmlns="http://www.w3.org/2000/svg">
<g clip-path="url(#clip0_33_2)">
<path d="M23.75 17.5874C23.75 18.2178 23.5631 18.8341 23.2128 19.3583C22.8626 19.8825 22.3647 20.291 21.7823 20.5323C21.1999 20.7735 20.559 20.8366 19.9407 20.7137C19.3223 20.5907 18.7544 20.2871 18.3086 19.8413C17.8628 19.3955 17.5592 18.8276 17.4362 18.2093C17.3133 17.5909 17.3764 16.95 17.6176 16.3676C17.8589 15.7852 18.2674 15.2873 18.7916 14.9371C19.3158 14.5868 19.9321 14.3999 20.5625 14.3999C21.4079 14.3999 22.2186 14.7357 22.8164 15.3335C23.4142 15.9313 23.75 16.742 23.75 17.5874Z" fill="#3B4763"/>
<path d="M22.9175 15.4425C22.8323 15.4435 22.7476 15.4291 22.6675 15.4C22.2448 15.252 21.7958 15.1945 21.3494 15.2312C20.9031 15.2679 20.4694 15.3979 20.0766 15.6128C19.6837 15.8278 19.3403 16.1228 19.0687 16.4789C18.7972 16.8351 18.6034 17.2442 18.5 17.68C18.4775 17.7808 18.4215 17.871 18.3411 17.9359C18.2608 18.0008 18.1608 18.0366 18.0575 18.0375H17.4075C17.3136 17.3649 17.4372 16.6798 17.7602 16.0824C18.0832 15.485 18.5887 15.0064 19.2029 14.7166C19.8171 14.4268 20.5079 14.341 21.1743 14.4715C21.8408 14.6021 22.4481 14.9423 22.9075 15.4425H22.9175Z" fill="#3B3D59"/>
<path d="M20.5624 18.8099C20.3201 18.8099 20.0833 18.738 19.8818 18.6034C19.6804 18.4688 19.5234 18.2775 19.4307 18.0537C19.3379 17.8298 19.3137 17.5835 19.3609 17.3459C19.4082 17.1083 19.5249 16.89 19.6962 16.7187C19.8675 16.5473 20.0858 16.4307 20.3234 16.3834C20.561 16.3361 20.8074 16.3604 21.0312 16.4531C21.255 16.5458 21.4463 16.7028 21.581 16.9043C21.7156 17.1057 21.7874 17.3426 21.7874 17.5849C21.7874 17.9098 21.6583 18.2213 21.4286 18.4511C21.1989 18.6808 20.8873 18.8099 20.5624 18.8099Z" fill="#5A6596"/>
<path d="M21.9475 14.5773C21.4978 14.4208 21.0187 14.3669 20.5455 14.4195C20.0723 14.4721 19.6168 14.6299 19.2124 14.8813C18.8081 15.1328 18.4651 15.4715 18.2086 15.8726C17.952 16.2738 17.7885 16.7273 17.73 17.1998C17.73 17.2248 17.92 17.2148 15.605 17.2148C14.9275 13.1573 19.75 10.6598 22.6925 13.3598C22.8134 13.4749 22.8911 13.628 22.9128 13.7935C22.9345 13.9591 22.8988 14.127 22.8117 14.2694C22.7246 14.4118 22.5912 14.5201 22.434 14.5761C22.2767 14.6321 22.105 14.6325 21.9475 14.5773Z" fill="#3B8DEC"/>
<path d="M22.8701 13.6076C22.8011 13.7839 22.6664 13.9265 22.4943 14.0054C22.3221 14.0842 22.1261 14.0931 21.9476 14.0301C21.3089 13.8072 20.6153 13.7967 19.9701 14.0001C19.9094 14.0191 19.8446 14.0205 19.7831 14.0043C19.7216 13.988 19.666 13.9547 19.6226 13.9082C19.5793 13.8617 19.5499 13.8039 19.538 13.7414C19.526 13.6789 19.532 13.6144 19.5551 13.5551C19.7342 13.14 19.844 12.6983 19.8801 12.2476C17.4351 12.2326 15.1301 14.3326 15.6051 17.2276C17.9301 17.2276 17.7176 17.2276 17.7301 17.2126C17.787 16.739 17.9493 16.2841 18.2051 15.8815C18.4609 15.4788 18.8037 15.1386 19.2082 14.8858C19.6128 14.633 20.0689 14.4741 20.5429 14.4208C21.017 14.3675 21.497 14.4211 21.9476 14.5776C22.0804 14.6176 22.2218 14.6199 22.3558 14.5844C22.4899 14.5488 22.6115 14.4768 22.7071 14.3763C22.8027 14.2758 22.8685 14.1507 22.8973 14.015C22.9261 13.8793 22.9167 13.7383 22.8701 13.6076Z" fill="#3674E2"/>
<path d="M17.7051 15.405V17.215H2.25009C2.16371 17.2136 2.07869 17.1933 2.00094 17.1556C1.92319 17.118 1.85457 17.0638 1.79985 16.997C1.74513 16.9301 1.70563 16.8522 1.68408 16.7685C1.66254 16.6849 1.65947 16.5975 1.67509 16.5125L2.01509 14.6625C2.21312 13.5924 2.77962 12.6255 3.61625 11.9295C4.45288 11.2335 5.50682 10.8525 6.59509 10.8525H10.0001C10.4073 10.8528 10.8019 10.9934 11.1175 11.2507C11.4331 11.508 11.6503 11.8662 11.7326 12.265L12.2151 14.6075C12.2615 14.8321 12.3837 15.0339 12.5612 15.1791C12.7388 15.3243 12.9608 15.4041 13.1901 15.405H17.7051Z" fill="#3674E2"/>
<path d="M2.72003 16.335C2.69238 16.3351 2.66504 16.3291 2.63998 16.3174C2.61491 16.3057 2.59275 16.2886 2.57506 16.2674C2.55738 16.2461 2.54462 16.2212 2.5377 16.1944C2.53078 16.1676 2.52987 16.1397 2.53503 16.1125L2.76003 14.8875C2.92423 14.0003 3.394 13.1987 4.08773 12.6219C4.78146 12.0451 5.65533 11.7295 6.55753 11.73H10.1525C10.3395 11.7307 10.5205 11.7957 10.6653 11.914C10.81 12.0324 10.9097 12.1969 10.9475 12.38L11.4475 14.8525C11.5184 15.2011 11.6776 15.5257 11.91 15.795C11.9518 15.8423 11.9789 15.9007 11.988 15.9632C11.9971 16.0256 11.9878 16.0893 11.9613 16.1466C11.9348 16.2038 11.8922 16.2521 11.8387 16.2856C11.7852 16.3191 11.7231 16.3362 11.66 16.335H2.72003Z" fill="#3B8DEC"/>
<path d="M5.98 5.375H0.5975C0.405581 5.375 0.25 5.53058 0.25 5.7225V11.105C0.25 11.2969 0.405581 11.4525 0.5975 11.4525H5.98C6.17192 11.4525 6.3275 11.2969 6.3275 11.105V5.7225C6.3275 5.53058 6.17192 5.375 5.98 5.375Z" fill="#FE901E"/>
<path d="M5.98 5.375H0.5975C0.405581 5.375 0.25 5.53058 0.25 5.7225V10.6525C0.25 10.8444 0.405581 11 0.5975 11H5.98C6.17192 11 6.3275 10.8444 6.3275 10.6525V5.7225C6.3275 5.53058 6.17192 5.375 5.98 5.375Z" fill="#FEBD1E"/>
<path d="M5.69 7V10.15C5.68935 10.2068 5.66649 10.2611 5.62631 10.3013C5.58613 10.3415 5.53182 10.3644 5.475 10.365H1.1C1.04341 10.3643 0.989367 10.3414 0.949586 10.3012C0.909804 10.2609 0.887496 10.2066 0.8875 10.15V7C0.8875 6.94364 0.909888 6.88959 0.94974 6.84974C0.989591 6.80989 1.04364 6.7875 1.1 6.7875H5.475C5.53159 6.7875 5.5859 6.8098 5.62615 6.84959C5.6664 6.88937 5.68934 6.94341 5.69 7ZM6.3275 5.715V6.2975C6.32427 6.21747 6.29019 6.14179 6.2324 6.08633C6.17461 6.03087 6.0976 5.99993 6.0175 6H0.5575C0.477649 5.99996 0.400914 6.03098 0.343525 6.0865C0.286137 6.14202 0.252597 6.21769 0.25 6.2975V5.715C0.25 5.62483 0.285821 5.53835 0.349584 5.47458C0.413346 5.41082 0.499826 5.375 0.59 5.375H6C6.08799 5.37824 6.17129 5.41548 6.23238 5.4789C6.29346 5.54231 6.32756 5.62695 6.3275 5.715Z" fill="#FEDB32"/>
<path d="M4.33243 7.7975L3.28743 7.4175L2.24243 7.7975V5.375H4.33243V7.7975Z" fill="#DCF0FF"/>
<path d="M4.33243 6.78516V7.79766L3.28743 7.41766L2.24243 7.79766V6.78516H4.33243Z" fill="white"/>
<path d="M4.33243 5.375H2.24243V5.99H4.33243V5.375Z" fill="white"/>
<path d="M1.5075 9.26514H0.25V10.6226H1.5075V9.26514Z" fill="#63799A"/>
<path d="M1.49995 9.26514V10.3651H1.09995C1.04336 10.3645 0.989318 10.3415 0.949537 10.3013C0.909756 10.261 0.887447 10.2067 0.887451 10.1501V9.26514H1.49995Z" fill="#6392BD"/>
<path d="M6.86011 20.7725C8.62052 20.7725 10.0476 19.3454 10.0476 17.585C10.0476 15.8246 8.62052 14.3975 6.86011 14.3975C5.0997 14.3975 3.67261 15.8246 3.67261 17.585C3.67261 19.3454 5.0997 20.7725 6.86011 20.7725Z" fill="#3B4763"/>
<path d="M10.0325 17.8927H3.69002C3.64888 17.4515 3.70029 17.0065 3.84096 16.5862C3.98162 16.1659 4.20845 15.7796 4.50693 15.452C4.80541 15.1244 5.16898 14.8627 5.57438 14.6837C5.97978 14.5046 6.41808 14.4121 6.86127 14.4121C7.30446 14.4121 7.74276 14.5046 8.14816 14.6837C8.55356 14.8627 8.91713 15.1244 9.21561 15.452C9.51409 15.7796 9.74092 16.1659 9.88158 16.5862C10.0222 17.0065 10.0737 17.4515 10.0325 17.8927Z" fill="#3B3D59"/>
<path d="M6.86251 18.8099C6.62012 18.8104 6.38304 18.7389 6.18126 18.6046C5.97948 18.4703 5.82208 18.2792 5.72898 18.0554C5.63588 17.8316 5.61126 17.5852 5.65824 17.3474C5.70523 17.1096 5.8217 16.8911 5.99292 16.7195C6.16414 16.548 6.38241 16.4311 6.6201 16.3836C6.8578 16.3361 7.10423 16.3602 7.32822 16.4529C7.5522 16.5455 7.74367 16.7025 7.87839 16.904C8.0131 17.1055 8.08501 17.3425 8.08501 17.5849C8.08501 17.9093 7.95629 18.2205 7.7271 18.4502C7.49791 18.6798 7.18697 18.8092 6.86251 18.8099Z" fill="#5A6596"/>
<path d="M8.04501 17.8924H5.67501C5.62753 17.7112 5.62224 17.5215 5.65955 17.338C5.69686 17.1544 5.77578 16.9818 5.89022 16.8335C6.00467 16.6852 6.15161 16.5651 6.31973 16.4825C6.48785 16.3999 6.67268 16.3569 6.86001 16.3569C7.04734 16.3569 7.23217 16.3999 7.40029 16.4825C7.56841 16.5651 7.71535 16.6852 7.82979 16.8335C7.94424 16.9818 8.02316 17.1544 8.06047 17.338C8.09778 17.5215 8.09249 17.7112 8.04501 17.8924Z" fill="#41427D"/>
<path d="M10.9349 17.2125H2.78491L3.18241 14.7675C3.28873 14.1109 3.62535 13.5135 4.132 13.0825C4.63864 12.6514 5.2822 12.4148 5.94741 12.415H9.30241C9.51706 12.4148 9.72503 12.4897 9.8903 12.6267C10.0556 12.7636 10.1677 12.9541 10.2074 13.165L10.9349 17.2125Z" fill="#455BBA"/>
<path d="M9.4349 14.5201L9.3099 13.8276C9.28913 13.7107 9.22741 13.6049 9.1358 13.5294C9.04419 13.4538 8.92866 13.4133 8.8099 13.4151H5.9474C5.51961 13.4144 5.1056 13.5664 4.77979 13.8436C4.45398 14.1209 4.23773 14.5052 4.1699 14.9276C4.1608 14.9829 4.16389 15.0396 4.17896 15.0936C4.19402 15.1476 4.22071 15.1976 4.25713 15.2403C4.29356 15.2829 4.33886 15.317 4.38986 15.3403C4.44086 15.3636 4.49634 15.3755 4.5524 15.3751H8.7199C8.82627 15.3754 8.93139 15.3522 9.02781 15.3073C9.12423 15.2624 9.20958 15.1968 9.27781 15.1152C9.34605 15.0336 9.39549 14.938 9.42264 14.8351C9.44979 14.7323 9.45398 14.6247 9.4349 14.5201Z" fill="#4574D8"/>
<path d="M8.58489 15.2651L8.49989 14.8276C8.4844 14.7564 8.44488 14.6927 8.38798 14.6472C8.33108 14.6017 8.26025 14.5771 8.18739 14.5776H6.38989C6.12097 14.5783 5.86102 14.6744 5.65636 14.8488C5.4517 15.0233 5.31563 15.2647 5.27239 15.5301C5.26774 15.5656 5.27075 15.6016 5.28121 15.6358C5.29167 15.67 5.30935 15.7016 5.33305 15.7283C5.35674 15.7551 5.3859 15.7765 5.41857 15.791C5.45123 15.8056 5.48663 15.8129 5.52239 15.8126H8.14739C8.21431 15.8115 8.28015 15.7955 8.34021 15.766C8.40027 15.7365 8.45307 15.694 8.49486 15.6418C8.53664 15.5895 8.56637 15.5286 8.58193 15.4635C8.5975 15.3984 8.5985 15.3307 8.58489 15.2651Z" fill="white"/>
<path d="M19.0249 13.4173L17.7149 16.7323C17.6595 16.8761 17.5611 16.9993 17.4332 17.0852C17.3052 17.1711 17.1539 17.2155 16.9999 17.2123H15.2774C15.146 17.2125 15.0167 17.1793 14.9016 17.116C14.7865 17.0526 14.6893 16.9611 14.6191 16.85C14.549 16.7389 14.5081 16.6118 14.5004 16.4806C14.4926 16.3494 14.5183 16.2184 14.5749 16.0998L16.0749 12.9273C16.3073 12.4384 16.4402 11.9081 16.4659 11.3674C16.4917 10.8266 16.4097 10.2862 16.2249 9.77734L15.2249 7.02734H16.8049L18.5774 9.58984C18.9595 10.1425 19.2002 10.7805 19.2782 11.4478C19.3562 12.1152 19.2692 12.7915 19.0249 13.4173Z" fill="#455BBA"/>
<path d="M17.4851 7.99496L16.8126 7.02246H15.2351L15.5851 7.99496H17.4851Z" fill="#364797"/>
<path d="M16 16.2127C15.9611 16.2125 15.9228 16.2026 15.8887 16.1838C15.8546 16.1649 15.8258 16.1379 15.8049 16.105C15.784 16.0722 15.7717 16.0346 15.7691 15.9958C15.7665 15.9569 15.7737 15.918 15.79 15.8827L16.99 13.3552C17.4486 12.4109 17.5897 11.3437 17.3925 10.3127C17.3831 10.2658 17.3902 10.217 17.4126 10.1747C17.4351 10.1324 17.4715 10.0992 17.5156 10.0806C17.5597 10.0621 17.6089 10.0594 17.6548 10.073C17.7008 10.0866 17.7405 10.1156 17.7675 10.1552C18.0549 10.5741 18.2351 11.0571 18.2922 11.5619C18.3493 12.0666 18.2816 12.5777 18.095 13.0502L16.9025 16.0677C16.8854 16.1107 16.8557 16.1475 16.8174 16.1734C16.779 16.1993 16.7338 16.213 16.6875 16.2127H16Z" fill="#3B8DEC"/>
<path d="M11.6351 9.95977C11.552 10.2188 11.3889 10.4447 11.1692 10.6051C10.9495 10.7655 10.6846 10.852 10.4126 10.8523H8.4826C8.27914 10.8409 8.08776 10.752 7.94775 10.6039C7.80775 10.4559 7.72974 10.2598 7.72974 10.056C7.72974 9.85223 7.80775 9.65618 7.94775 9.50811C8.08776 9.36003 8.27914 9.27117 8.4826 9.25977H11.1276C11.2119 9.25999 11.2949 9.28012 11.3699 9.31852C11.445 9.35692 11.5099 9.4125 11.5593 9.48074C11.6088 9.54897 11.6414 9.62793 11.6546 9.71117C11.6678 9.79442 11.6611 9.87959 11.6351 9.95977Z" fill="#63799A"/>
<path d="M18.7499 5.34738V6.53488C18.7467 6.66531 18.6925 6.7893 18.5991 6.88039C18.5057 6.97147 18.3804 7.02243 18.2499 7.02239H15.2324V5.90489C15.2323 5.71725 15.3009 5.53606 15.4252 5.39556C15.5496 5.25507 15.7212 5.165 15.9074 5.14239C16.4074 5.07739 18.1574 4.86489 18.1999 4.86239C18.2684 4.85548 18.3376 4.86279 18.4031 4.88386C18.4687 4.90494 18.5291 4.93931 18.5808 4.98484C18.6324 5.03038 18.6741 5.08608 18.7032 5.14846C18.7323 5.21084 18.7482 5.27857 18.7499 5.34738Z" fill="#C8E1FF"/>
<path d="M17.9924 4.8877L15.8574 7.0227H15.3274L17.3874 4.9627L17.9924 4.8877Z" fill="white"/>
<path d="M16.4824 5.07227L15.2324 6.31977V5.91727L16.0224 5.12727L16.4824 5.07227Z" fill="white"/>
<path d="M18.75 5.3475V6.0975L17.815 7.0325H16.165L18.325 4.875C18.4397 4.89228 18.5447 4.94885 18.6223 5.03504C18.6998 5.12123 18.745 5.23168 18.75 5.3475Z" fill="white"/>
<path d="M17.375 4.96264V7.02263H18.25C18.3805 7.02268 18.5058 6.97172 18.5992 6.88064C18.6926 6.78955 18.7467 6.66556 18.75 6.53513V5.34513C18.7479 5.27676 18.7318 5.20954 18.7027 5.14764C18.6736 5.08573 18.6321 5.03046 18.5808 4.98523C18.5295 4.94001 18.4694 4.90579 18.4044 4.8847C18.3393 4.86362 18.2706 4.85611 18.2025 4.86264L17.375 4.96264Z" fill="#FEBD1E"/>
<path d="M17.6875 6.64733V5.28983C17.6874 5.25543 17.7001 5.22222 17.7233 5.19677C17.7464 5.17131 17.7782 5.15546 17.8125 5.15233L18.2 5.11733C18.2319 5.11415 18.2642 5.11776 18.2946 5.12792C18.325 5.13808 18.353 5.15457 18.3766 5.17629C18.4002 5.19801 18.4189 5.22447 18.4316 5.25395C18.4442 5.28343 18.4505 5.31525 18.45 5.34733L18.43 6.56233C18.4287 6.6218 18.4041 6.67838 18.3616 6.71997C18.3191 6.76156 18.262 6.78484 18.2025 6.78483H17.825C17.7885 6.78483 17.7536 6.77034 17.7278 6.74456C17.702 6.71877 17.6875 6.6838 17.6875 6.64733Z" fill="#FE861E"/>
<path d="M15.9076 5.39247C15.8649 5.39229 15.8229 5.38117 15.7857 5.36016C15.7485 5.33915 15.7173 5.30896 15.6951 5.27247L14.9701 4.12247C14.949 4.06725 14.9481 4.00634 14.9677 3.95055C14.9872 3.89475 15.0259 3.84769 15.0769 3.81772C15.1278 3.78775 15.1877 3.7768 15.246 3.78682C15.3043 3.79685 15.3571 3.82719 15.3951 3.87247L16.1201 5.02247C16.1407 5.06004 16.1512 5.10226 16.1508 5.14509C16.1504 5.18792 16.1389 5.22993 16.1176 5.26707C16.0963 5.30421 16.0658 5.33525 16.029 5.35721C15.9922 5.37917 15.9504 5.39131 15.9076 5.39247Z" fill="#C8E1FF"/>
<path d="M15.4124 4.34727H13.6899C13.5358 4.33737 13.3913 4.26919 13.2857 4.15658C13.1801 4.04398 13.1213 3.89539 13.1213 3.74102C13.1213 3.58664 13.1801 3.43805 13.2857 3.32545C13.3913 3.21284 13.5358 3.14466 13.6899 3.13477H14.3399C14.6243 3.13477 14.8971 3.24776 15.0983 3.44889C15.2994 3.65003 15.4124 3.92282 15.4124 4.20727V4.34727Z" fill="#3B8DEC"/>
<path d="M5.95239 16.6875H8.79739C8.8637 16.6875 8.92729 16.6612 8.97417 16.6143C9.02105 16.5674 9.04739 16.5038 9.04739 16.4375C9.04739 16.3712 9.02105 16.3076 8.97417 16.2607C8.92729 16.2138 8.8637 16.1875 8.79739 16.1875H5.95239C5.88609 16.1875 5.8225 16.2138 5.77562 16.2607C5.72873 16.3076 5.70239 16.3712 5.70239 16.4375C5.70239 16.5038 5.72873 16.5674 5.77562 16.6143C5.8225 16.6612 5.88609 16.6875 5.95239 16.6875Z" fill="#4574D8"/>
<path d="M22.565 14.8399C22.7174 14.7785 22.8518 14.6795 22.9557 14.5522C23.0596 14.4249 23.1297 14.2734 23.1594 14.1118C23.1891 13.9501 23.1774 13.7836 23.1255 13.6277C23.0736 13.4718 22.9831 13.3315 22.8625 13.2199C22.4204 12.8094 21.8995 12.493 21.3313 12.2902C20.7631 12.0873 20.1596 12.0022 19.5575 12.0399C19.5748 11.1337 19.3063 10.245 18.79 9.49992L17.29 7.32742H18.25C18.4485 7.32742 18.6389 7.24875 18.7794 7.10864C18.92 6.96852 18.9993 6.7784 19 6.57992V5.39242C18.9981 5.28853 18.9747 5.18617 18.9312 5.09182C18.8877 4.99746 18.825 4.91318 18.7472 4.84431C18.6694 4.77544 18.5782 4.72349 18.4792 4.69175C18.3803 4.66001 18.2758 4.64917 18.1725 4.65992L16.0375 4.90992C15.61 4.22242 15.665 4.33742 15.665 4.24242C15.6643 3.89188 15.5248 3.55588 15.2769 3.308C15.029 3.06013 14.693 2.92058 14.3425 2.91992H13.6925C13.4734 2.93176 13.2672 3.02714 13.1163 3.18642C12.9654 3.3457 12.8813 3.55676 12.8813 3.77617C12.8813 3.99558 12.9654 4.20665 13.1163 4.36593C13.2672 4.5252 13.4734 4.62058 13.6925 4.63242H15.275L15.525 5.03742C15.3616 5.12492 15.2249 5.25501 15.1294 5.41389C15.0338 5.57278 14.9831 5.75454 14.9825 5.93992V6.32742L13.4425 6.82742C13.3863 6.84589 13.3384 6.88372 13.3074 6.93418C13.2765 6.98464 13.2644 7.04444 13.2734 7.10295C13.2824 7.16147 13.3119 7.21488 13.3566 7.2537C13.4013 7.29251 13.4583 7.31421 13.5175 7.31492C13.5725 7.31492 13.4675 7.34242 14.9825 6.85992C14.9825 7.21492 14.87 6.79492 15.9825 9.90492C16.1547 10.3829 16.231 10.8901 16.2069 11.3976C16.1829 11.9051 16.0591 12.4028 15.8425 12.8624L14.75 15.1999H13.19C13.0183 15.1989 12.8522 15.1391 12.7193 15.0303C12.5864 14.9216 12.4949 14.7705 12.46 14.6024L11.9775 12.2499C11.8684 11.7262 11.5566 11.267 11.11 10.9724C11.29 10.8805 11.45 10.7539 11.5809 10.5998C11.7118 10.4458 11.8109 10.2674 11.8725 10.0749C11.9109 9.95683 11.9207 9.83133 11.9011 9.70872C11.8815 9.58611 11.8332 9.46989 11.76 9.3696C11.6868 9.26931 11.5908 9.18782 11.48 9.13181C11.3692 9.07581 11.2467 9.04688 11.1225 9.04742H8.4825C8.29692 9.04823 8.11488 9.09832 7.95502 9.19258C7.79515 9.28685 7.6632 9.42189 7.57266 9.58389C7.48212 9.74589 7.43625 9.92904 7.43974 10.1146C7.44322 10.3001 7.49594 10.4814 7.5925 10.6399H6.5925V5.82242C6.5925 5.6498 6.5241 5.48421 6.40227 5.36192C6.28044 5.23962 6.11512 5.17058 5.9425 5.16992H0.6525C0.479446 5.16992 0.31348 5.23867 0.191113 5.36103C0.0687453 5.4834 0 5.64937 0 5.82242L0 11.1074C0.00262582 11.2787 0.0725286 11.4421 0.194613 11.5624C0.316697 11.6826 0.481165 11.7499 0.6525 11.7499H3.485C2.58583 12.4865 1.97794 13.5188 1.77 14.6624L1.43 16.5124C1.40942 16.6326 1.4151 16.7559 1.44665 16.8737C1.47821 16.9914 1.53488 17.101 1.61279 17.1948C1.6907 17.2887 1.78799 17.3645 1.89798 17.4172C2.00798 17.4698 2.12806 17.4981 2.25 17.4999H3.4175C3.40512 17.9586 3.48478 18.4152 3.65178 18.8426C3.81877 19.27 4.06972 19.6597 4.3898 19.9885C4.70987 20.3173 5.09259 20.5787 5.51536 20.7572C5.93812 20.9356 6.39236 21.0276 6.85125 21.0276C7.31014 21.0276 7.76438 20.9356 8.18714 20.7572C8.60991 20.5787 8.99263 20.3173 9.3127 19.9885C9.63278 19.6597 9.88373 19.27 10.0507 18.8426C10.2177 18.4152 10.2974 17.9586 10.285 17.4999H17.1275C17.1043 18.0942 17.2358 18.6844 17.5089 19.2127C17.7821 19.741 18.1877 20.1894 18.686 20.5141C19.1844 20.8387 19.7584 21.0285 20.3521 21.0649C20.9457 21.1013 21.5387 20.983 22.0729 20.7217C22.6072 20.4603 23.0645 20.0648 23.4002 19.5738C23.7358 19.0828 23.9383 18.5131 23.9879 17.9204C24.0375 17.3277 23.9325 16.7323 23.6831 16.1924C23.4336 15.6524 23.0484 15.1864 22.565 14.8399ZM22.525 13.5899C22.6056 13.6662 22.6573 13.768 22.6712 13.878C22.6852 13.9881 22.6607 14.0996 22.6018 14.1935C22.5428 14.2875 22.4532 14.3582 22.348 14.3935C22.2429 14.4289 22.1287 14.4267 22.025 14.3874C21.5959 14.237 21.1415 14.1725 20.6875 14.1974C20.0281 14.1712 19.3753 14.3362 18.8075 14.6724C19.22 13.6274 19.425 13.2074 19.5125 12.5449C20.0597 12.4999 20.6103 12.5696 21.129 12.7495C21.6478 12.9294 22.1232 13.2157 22.525 13.5899ZM18.23 5.15492C18.2632 5.15255 18.2966 5.15685 18.3282 5.16757C18.3597 5.17829 18.3888 5.19521 18.4138 5.21734C18.4387 5.23947 18.4589 5.26636 18.4733 5.29642C18.4877 5.32649 18.4959 5.35913 18.4975 5.39242V6.57992C18.4945 6.64193 18.4685 6.7006 18.4246 6.7445C18.3807 6.7884 18.322 6.81439 18.26 6.81742H17.625V5.22992L18.23 5.15492ZM13.69 4.14242C13.6007 4.13493 13.5174 4.09415 13.4567 4.02817C13.396 3.96219 13.3624 3.87582 13.3624 3.78617C13.3624 3.69653 13.396 3.61015 13.4567 3.54417C13.5174 3.47819 13.6007 3.43741 13.69 3.42992H14.34C14.5391 3.42995 14.7314 3.50217 14.8812 3.63319C15.0311 3.76421 15.1284 3.94514 15.155 4.14242H13.69ZM16.5375 6.10492C16.5276 6.07352 16.5115 6.04439 16.4903 6.01922C16.469 5.99404 16.443 5.9733 16.4138 5.9582C16.3845 5.9431 16.3525 5.93393 16.3197 5.93122C16.2869 5.92852 16.2538 5.93232 16.2225 5.94242L15.4725 6.17992V5.94992C15.4722 5.82327 15.5183 5.70091 15.6022 5.606C15.686 5.51108 15.8018 5.45022 15.9275 5.43492L17.115 5.28992V6.81742H15.4825V6.70242L16.375 6.41992C16.4064 6.40998 16.4355 6.39393 16.4607 6.3727C16.4859 6.35147 16.5066 6.32547 16.5217 6.2962C16.5368 6.26693 16.546 6.23496 16.5487 6.20213C16.5514 6.16931 16.5476 6.13627 16.5375 6.10492ZM7.9375 10.1049C7.93815 9.96035 7.9957 9.82184 8.0977 9.71938C8.19969 9.61692 8.33793 9.55873 8.4825 9.55742H11.1275C11.1721 9.5573 11.216 9.56791 11.2556 9.58836C11.2952 9.60882 11.3293 9.63851 11.355 9.67492C11.3807 9.71061 11.3976 9.75179 11.4046 9.79519C11.4115 9.83859 11.4082 9.88301 11.395 9.92492C11.329 10.1336 11.1981 10.3157 11.0214 10.4447C10.8446 10.5738 10.6313 10.643 10.4125 10.6424H8.4825C8.33882 10.6424 8.20095 10.5857 8.09888 10.4846C7.99682 10.3834 7.93882 10.2461 7.9375 10.1024V10.1049ZM4.0925 5.66992V7.49992L3.38 7.24992C3.265 7.20742 3.2575 7.22992 2.4975 7.49992V5.66992H4.0925ZM0.5 9.56992H1.25V10.4299H0.5V9.56992ZM0.6525 11.2499C0.613729 11.25 0.576382 11.2353 0.548053 11.2088C0.519725 11.1824 0.502542 11.1461 0.5 11.1074V10.9299H1.5C1.5663 10.9299 1.62989 10.9036 1.67678 10.8567C1.72366 10.8098 1.75 10.7462 1.75 10.6799V9.31992C1.75 9.25362 1.72366 9.19003 1.67678 9.14315C1.62989 9.09626 1.5663 9.06992 1.5 9.06992H0.5V5.81992C0.5 5.77948 0.516067 5.74069 0.544666 5.71209C0.573266 5.68349 0.612054 5.66742 0.6525 5.66742H2V7.84492C2.00002 7.88506 2.0097 7.9246 2.02822 7.9602C2.04675 7.99581 2.07357 8.02643 2.10643 8.04948C2.13929 8.07253 2.17721 8.08733 2.217 8.09263C2.25678 8.09793 2.29726 8.09357 2.335 8.07992L3.2975 7.72992L4.25 8.08242C4.28788 8.09658 4.32863 8.10133 4.36875 8.09627C4.40887 8.09122 4.44717 8.07651 4.48036 8.0534C4.51354 8.03029 4.54063 7.99948 4.55929 7.9636C4.57795 7.92773 4.58763 7.88786 4.5875 7.84742V5.66992H5.9325C5.97251 5.67058 6.01066 5.68693 6.03872 5.71546C6.06678 5.74399 6.08251 5.78241 6.0825 5.82242C6.0825 11.4424 6.0825 11.1349 6.0625 11.1799C6.05065 11.2042 6.03213 11.2246 6.00912 11.2388C5.9861 11.253 5.95952 11.2603 5.9325 11.2599L0.6525 11.2499ZM9.7975 17.6324C9.80896 18.0252 9.7415 18.4163 9.59909 18.7826C9.45669 19.1489 9.24224 19.4828 8.96845 19.7647C8.69466 20.0466 8.3671 20.2707 8.00515 20.4237C7.6432 20.5768 7.25422 20.6556 6.86125 20.6556C6.46828 20.6556 6.0793 20.5768 5.71735 20.4237C5.3554 20.2707 5.02784 20.0466 4.75405 19.7647C4.48026 19.4828 4.26581 19.1489 4.12341 18.7826C3.981 18.4163 3.91354 18.0252 3.925 17.6324C3.92245 17.5916 3.92245 17.5507 3.925 17.5099H5.385C5.36822 17.7132 5.39377 17.9177 5.46003 18.1105C5.52629 18.3034 5.63182 18.4804 5.76996 18.6304C5.9081 18.7804 6.07585 18.9002 6.2626 18.9821C6.44936 19.064 6.65107 19.1063 6.855 19.1063C7.05893 19.1063 7.26064 19.064 7.4474 18.9821C7.63415 18.9002 7.8019 18.7804 7.94004 18.6304C8.07818 18.4804 8.18371 18.3034 8.24997 18.1105C8.31623 17.9177 8.34178 17.7132 8.325 17.5099H9.7875C9.79339 17.5505 9.79673 17.5914 9.7975 17.6324ZM6.8625 18.6074C6.72305 18.6076 6.58518 18.5779 6.45815 18.5204C6.33112 18.4629 6.21786 18.3789 6.12598 18.274C6.0341 18.1691 5.96574 18.0457 5.92547 17.9122C5.88519 17.7787 5.87395 17.6381 5.8925 17.4999H7.8275C7.84641 17.6378 7.83559 17.7781 7.79577 17.9114C7.75595 18.0448 7.68806 18.168 7.59664 18.2729C7.50523 18.3778 7.39242 18.462 7.26579 18.5197C7.13916 18.5774 7.00165 18.6073 6.8625 18.6074ZM3.08 16.9999L3.43 14.8424C3.52488 14.2436 3.83081 13.6985 4.29251 13.3056C4.75421 12.9126 5.34123 12.6978 5.9475 12.6999H9.3025C9.45945 12.7004 9.61125 12.756 9.73141 12.857C9.85158 12.9579 9.93248 13.0979 9.96 13.2524L10.6375 17.0024L3.08 16.9999ZM11.145 16.9999L10.4525 13.1724C10.4044 12.9025 10.2627 12.6581 10.0525 12.4821C9.8422 12.3061 9.5767 12.2098 9.3025 12.2099H5.9475C5.22425 12.21 4.52475 12.468 3.97482 12.9378C3.42488 13.4075 3.0606 14.0581 2.9475 14.7724L2.575 16.9999H2.25C2.19941 17.0001 2.14941 16.9891 2.10359 16.9676C2.05777 16.9462 2.01727 16.9149 1.985 16.8759C1.95273 16.8369 1.92949 16.7913 1.91696 16.7423C1.90442 16.6933 1.9029 16.6421 1.9125 16.5924L2.2625 14.7499C2.37547 14.1296 2.6203 13.5408 2.98043 13.0232C3.34057 12.5057 3.80761 12.0714 4.35 11.7499H5.9375C6.10315 11.7496 6.26242 11.686 6.38276 11.5721C6.50311 11.4583 6.57544 11.3028 6.585 11.1374H10C10.3512 11.1367 10.692 11.2568 10.9651 11.4775C11.2383 11.6983 11.4271 12.0064 11.5 12.3499L11.98 14.6924C12.0375 14.9739 12.1901 15.227 12.4123 15.4092C12.6345 15.5913 12.9127 15.6913 13.2 15.6924H14.5L14.34 16.0324C14.2686 16.1858 14.2365 16.3545 14.2465 16.5234C14.2565 16.6923 14.3084 16.8561 14.3975 16.9999H11.145ZM15.2775 16.9999C15.1892 16.9991 15.1024 16.9763 15.0251 16.9334C14.9479 16.8906 14.8825 16.8291 14.8351 16.7546C14.7876 16.6801 14.7596 16.5948 14.7535 16.5067C14.7473 16.4186 14.7633 16.3303 14.8 16.2499C15.1475 15.5149 14.8775 16.0874 16.3 13.0749C16.7907 12.0316 16.85 10.8367 16.465 9.74992L15.59 7.33242H16.6825L18.38 9.78492C18.9505 10.612 19.1732 11.6302 19 12.6199C18.915 13.1199 18.9175 13.0474 17.48 16.6849C17.4547 16.752 17.4152 16.8128 17.3643 16.8633C17.3134 16.9137 17.2523 16.9527 17.185 16.9774C17.065 17.0224 17.205 16.9999 15.2775 16.9999ZM20.5625 20.5699C19.7836 20.5693 19.0368 20.2596 18.4861 19.7088C17.9354 19.1581 17.6257 18.4113 17.625 17.6324C17.6225 17.5916 17.6225 17.5507 17.625 17.5099H17.7225C17.7843 17.5103 17.8441 17.4878 17.8902 17.4467C17.9364 17.4056 17.9657 17.3489 17.9725 17.2874C18.0552 16.604 18.3745 15.9712 18.8749 15.4986C19.3754 15.0259 20.0255 14.7434 20.7125 14.6999C21.4738 14.7441 22.1881 15.0826 22.7044 15.6439C23.2206 16.2051 23.4984 16.9452 23.4789 17.7075C23.4594 18.4699 23.1442 19.1948 22.6 19.7289C22.0557 20.2631 21.3251 20.5647 20.5625 20.5699Z" fill="#302D3D"/>
<path d="M20.5624 16.1573C20.2707 16.1573 19.9855 16.2438 19.743 16.4059C19.5004 16.568 19.3113 16.7983 19.1997 17.0679C19.0881 17.3374 19.0588 17.634 19.1158 17.9201C19.1727 18.2062 19.3132 18.469 19.5194 18.6753C19.7257 18.8816 19.9885 19.0221 20.2747 19.079C20.5608 19.1359 20.8574 19.1067 21.1269 18.995C21.3964 18.8834 21.6268 18.6944 21.7888 18.4518C21.9509 18.2092 22.0374 17.9241 22.0374 17.6323C22.0374 17.4386 21.9993 17.2468 21.9251 17.0679C21.851 16.8889 21.7424 16.7263 21.6054 16.5893C21.4684 16.4524 21.3058 16.3437 21.1269 16.2696C20.9479 16.1955 20.7561 16.1573 20.5624 16.1573ZM20.5624 18.6073C20.3696 18.6073 20.1811 18.5501 20.0207 18.443C19.8604 18.3359 19.7354 18.1836 19.6616 18.0054C19.5878 17.8273 19.5685 17.6312 19.6062 17.4421C19.6438 17.253 19.7366 17.0793 19.873 16.9429C20.0093 16.8065 20.1831 16.7137 20.3722 16.6761C20.5613 16.6384 20.7574 16.6577 20.9355 16.7315C21.1137 16.8053 21.266 16.9303 21.3731 17.0906C21.4802 17.251 21.5374 17.4395 21.5374 17.6323C21.5368 17.8907 21.4338 18.1383 21.2511 18.321C21.0684 18.5037 20.8208 18.6067 20.5624 18.6073ZM4.91992 9.56982H5.63742C5.70373 9.56982 5.76731 9.54349 5.8142 9.4966C5.86108 9.44972 5.88742 9.38613 5.88742 9.31982C5.88742 9.25352 5.86108 9.18993 5.8142 9.14305C5.76731 9.09616 5.70373 9.06982 5.63742 9.06982H4.91992C4.85362 9.06982 4.79003 9.09616 4.74314 9.14305C4.69626 9.18993 4.66992 9.25352 4.66992 9.31982C4.66992 9.38613 4.69626 9.44972 4.74314 9.4966C4.79003 9.54349 4.85362 9.56982 4.91992 9.56982ZM4.91992 10.2498H5.63742C5.70373 10.2498 5.76731 10.2235 5.8142 10.1766C5.86108 10.1297 5.88742 10.0661 5.88742 9.99982C5.88742 9.93352 5.86108 9.86993 5.8142 9.82305C5.76731 9.77616 5.70373 9.74982 5.63742 9.74982H4.91992C4.85362 9.74982 4.79003 9.77616 4.74314 9.82305C4.69626 9.86993 4.66992 9.93352 4.66992 9.99982C4.66992 10.0661 4.69626 10.1297 4.74314 10.1766C4.79003 10.2235 4.85362 10.2498 4.91992 10.2498ZM5.88742 10.6798C5.88742 10.6135 5.86108 10.5499 5.8142 10.503C5.76731 10.4562 5.70373 10.4298 5.63742 10.4298H4.91992C4.85362 10.4348 4.792 10.4659 4.74864 10.5163C4.70527 10.5667 4.6837 10.6323 4.68867 10.6986C4.69364 10.7649 4.72475 10.8265 4.77515 10.8699C4.82555 10.9132 4.89112 10.9348 4.95742 10.9298H5.63742C5.70373 10.9298 5.76731 10.9035 5.8142 10.8566C5.86108 10.8097 5.88742 10.7461 5.88742 10.6798Z" fill="#302D3D"/>
</g>
<defs>
<clipPath id="clip0_33_2">
<rect width="24" height="24" fill="white"/>
</clipPath>
</defs>
</svg>
