<svg width="24" height="24" viewBox="0 0 24 24" fill="none" xmlns="http://www.w3.org/2000/svg">
<path fill-rule="evenodd" clip-rule="evenodd" d="M3.25 15.3301C3.25 16.3236 3.78587 17.2398 4.65178 17.7269L10.6518 21.1019C11.4889 21.5728 12.5111 21.5728 13.3482 21.1019L19.3482 17.7269C20.2141 17.2398 20.75 16.3236 20.75 15.3301V8.66945C20.75 7.67595 20.2141 6.75975 19.3482 6.27265L13.3482 2.89765C12.5111 2.42675 11.4889 2.42675 10.6518 2.89765L4.65178 6.27265C3.78587 6.75975 3.25 7.67595 3.25 8.66945L3.25 15.3301ZM10.409 13.5908C9.53033 12.7121 9.53033 11.2875 10.409 10.4088C11.2877 9.53005 12.7123 9.53005 13.591 10.4088C14.4697 11.2875 14.4697 12.7121 13.591 13.5908C12.7123 14.4694 11.2877 14.4694 10.409 13.5908Z" fill="#CA2B1D"/>
</svg>
