<svg width="24" height="24" viewBox="0 0 24 24" fill="none" xmlns="http://www.w3.org/2000/svg">
<path d="M12 21.7002C11.4851 21.7049 10.9781 21.5739 10.53 21.3202L4.53 17.9402C4.0666 17.6798 3.68074 17.3008 3.4119 16.8422C3.14307 16.3836 3.00092 15.8618 3 15.3302V8.67024C3.00092 8.13865 3.14307 7.61686 3.4119 7.15825C3.68074 6.69965 4.0666 6.32072 4.53 6.06024L10.53 2.68024C10.9789 2.42794 11.4851 2.29541 12 2.29541C12.5149 2.29541 13.0211 2.42794 13.47 2.68024L19.47 6.06024C19.9334 6.32072 20.3193 6.69965 20.5881 7.15825C20.8569 7.61686 20.9991 8.13865 21 8.67024V15.3302C20.9991 15.8618 20.8569 16.3836 20.5881 16.8422C20.3193 17.3008 19.9334 17.6798 19.47 17.9402L13.47 21.3202C13.0219 21.5739 12.5149 21.7049 12 21.7002ZM12 4.30024C11.8291 4.29771 11.6604 4.33902 11.51 4.42024L5.51 7.80024C5.35553 7.88707 5.22691 8.01338 5.1373 8.16625C5.04769 8.31911 5.00031 8.49305 5 8.67024V15.3302C5.00031 15.5074 5.04769 15.6814 5.1373 15.8342C5.22691 15.9871 5.35553 16.1134 5.51 16.2002L11.51 19.5802C11.662 19.668 11.8345 19.7142 12.01 19.7142C12.1855 19.7142 12.358 19.668 12.51 19.5802L18.51 16.2002C18.6645 16.1134 18.7931 15.9871 18.8827 15.8342C18.9723 15.6814 19.0197 15.5074 19.02 15.3302V8.67024C19.0197 8.49305 18.9723 8.31911 18.8827 8.16625C18.7931 8.01338 18.6645 7.88707 18.51 7.80024L12.51 4.42024C12.3537 4.33563 12.1776 4.29421 12 4.30024Z" fill="#AAAAAA"/>
<path d="M12 16C11.2089 16 10.4355 15.7654 9.77772 15.3259C9.11993 14.8864 8.60723 14.2616 8.30448 13.5307C8.00173 12.7998 7.92252 11.9956 8.07686 11.2196C8.2312 10.4437 8.61216 9.73098 9.17157 9.17157C9.73098 8.61216 10.4437 8.2312 11.2196 8.07686C11.9956 7.92252 12.7998 8.00173 13.5307 8.30448C14.2616 8.60723 14.8864 9.11993 15.3259 9.77772C15.7654 10.4355 16 11.2089 16 12C16 13.0609 15.5786 14.0783 14.8284 14.8284C14.0783 15.5786 13.0609 16 12 16ZM12 10C11.6044 10 11.2178 10.1173 10.8889 10.3371C10.56 10.5568 10.3036 10.8692 10.1522 11.2346C10.0009 11.6001 9.96126 12.0022 10.0384 12.3902C10.1156 12.7781 10.3061 13.1345 10.5858 13.4142C10.8655 13.6939 11.2219 13.8844 11.6098 13.9616C11.9978 14.0387 12.3999 13.9991 12.7654 13.8478C13.1308 13.6964 13.4432 13.44 13.6629 13.1111C13.8827 12.7822 14 12.3956 14 12C14 11.4696 13.7893 10.9609 13.4142 10.5858C13.0391 10.2107 12.5304 10 12 10Z" fill="#111111"/>
</svg>
