<svg width="24" height="24" viewBox="0 0 24 24" fill="none" xmlns="http://www.w3.org/2000/svg">
<path fill-rule="evenodd" clip-rule="evenodd" d="M9.33747 4C8.1459 4 7.17578 4.97012 7.17578 6.16169V8.18629H8.25135V6.16169C8.25135 5.57118 8.73641 5.08612 9.33747 5.08612H14.6626C15.2531 5.08612 15.7487 5.57118 15.7487 6.16169V8.18629H16.8243V6.16169C16.8243 4.97012 15.8542 4 14.6626 4H9.33747Z" fill="#766E6E"/>
<path fill-rule="evenodd" clip-rule="evenodd" d="M4.03345 10.2529H19.9667L19.1336 16.3584C18.9122 18.0561 17.7417 19.4586 16.0334 19.4586H7.95612C6.2584 19.4586 5.08793 18.0561 4.85594 16.3584L4.03345 10.2529Z" fill="#FFC269"/>
<path d="M21 8.18604H3V10.2528H21V8.18604Z" fill="#F79A54"/>
<path d="M8.89474 13.2903C8.89474 12.8943 8.57607 12.5732 8.18297 12.5732C7.78986 12.5732 7.47119 12.8943 7.47119 13.2903V16.4326C7.47119 16.8287 7.78986 17.1497 8.18297 17.1497C8.57607 17.1497 8.89474 16.8287 8.89474 16.4326V13.2903Z" fill="#F79A54"/>
<path d="M12.7119 13.2903C12.7119 12.8943 12.3932 12.5732 12.0001 12.5732C11.607 12.5732 11.2883 12.8943 11.2883 13.2903V16.4326C11.2883 16.8287 11.607 17.1497 12.0001 17.1497C12.3932 17.1497 12.7119 16.8287 12.7119 16.4326V13.2903Z" fill="#F79A54"/>
<path d="M16.529 13.2903C16.529 12.8943 16.2103 12.5732 15.8172 12.5732C15.4241 12.5732 15.1055 12.8943 15.1055 13.2903V16.4326C15.1055 16.8287 15.4241 17.1497 15.8172 17.1497C16.2103 17.1497 16.529 16.8287 16.529 16.4326V13.2903Z" fill="#F79A54"/>
<path d="M4.5608 8.99854C4.43426 8.99854 4.33936 9.09344 4.33936 9.21998C4.33936 9.33597 4.43426 9.43087 4.5608 9.43087H19.4395C19.5555 9.43087 19.661 9.33597 19.661 9.21998C19.661 9.09344 19.5555 8.99854 19.4395 8.99854H4.5608Z" fill="#C87D44"/>
</svg>
