<svg width="24" height="24" viewBox="0 0 24 24" fill="none" xmlns="http://www.w3.org/2000/svg">
<path d="M18 7.5H4.5C4.275 7.5 4.125 7.65 4.125 7.875V21.75C4.125 21.975 4.275 22.125 4.5 22.125H18C18.225 22.125 18.375 21.975 18.375 21.75V7.875C18.375 7.65 18.225 7.5 18 7.5Z" fill="#80CBC4"/>
<path d="M19.875 6.375H6.375C6.15 6.375 6 6.525 6 6.75V20.25C6 20.475 6.15 20.625 6.375 20.625H19.875C20.1 20.625 20.25 20.475 20.25 20.25V6.75C20.25 6.525 20.1 6.375 19.875 6.375Z" fill="#B2DFDB"/>
<path d="M17.625 10.875H8.625C8.4 10.875 8.25 10.725 8.25 10.5C8.25 10.275 8.4 10.125 8.625 10.125H17.625C17.85 10.125 18 10.275 18 10.5C18 10.725 17.85 10.875 17.625 10.875ZM17.625 12.75H15C14.775 12.75 14.625 12.6 14.625 12.375C14.625 12.15 14.775 12 15 12H17.625C17.85 12 18 12.15 18 12.375C18 12.6 17.85 12.75 17.625 12.75ZM13.125 12.75H8.625C8.4 12.75 8.25 12.6 8.25 12.375C8.25 12.15 8.4 12 8.625 12H13.125C13.35 12 13.5 12.15 13.5 12.375C13.5 12.6 13.35 12.75 13.125 12.75ZM17.625 14.625H13.5C13.275 14.625 13.125 14.475 13.125 14.25C13.125 14.025 13.275 13.875 13.5 13.875H17.625C17.85 13.875 18 14.025 18 14.25C18 14.475 17.85 14.625 17.625 14.625ZM11.625 14.625H8.625C8.4 14.625 8.25 14.475 8.25 14.25C8.25 14.025 8.4 13.875 8.625 13.875H11.625C11.85 13.875 12 14.025 12 14.25C12 14.475 11.85 14.625 11.625 14.625ZM17.625 17.25H13.125C12.9 17.25 12.75 17.1 12.75 16.875C12.75 16.65 12.9 16.5 13.125 16.5H17.625C17.85 16.5 18 16.65 18 16.875C18 17.1 17.85 17.25 17.625 17.25ZM16.875 18.75H13.875C13.65 18.75 13.5 18.6 13.5 18.375C13.5 18.15 13.65 18 13.875 18H16.875C17.1 18 17.25 18.15 17.25 18.375C17.25 18.6 17.1 18.75 16.875 18.75Z" fill="#263238"/>
<path d="M17.4375 4.6498L16.3875 3.5998C16.2375 3.4498 16.0125 3.4498 15.8625 3.5998L14.8125 4.6498C14.6625 4.7998 14.6625 5.0248 14.8125 5.1748L15.8625 6.2248C15.9375 6.2998 16.05 6.3373 16.125 6.3373C16.2 6.3373 16.3125 6.2998 16.3875 6.2248L17.4375 5.1748C17.5125 5.0998 17.55 5.0248 17.55 4.9123C17.55 4.7998 17.5125 4.7248 17.4375 4.6498Z" fill="#C62828"/>
<path d="M19.0499 4.65L16.3874 1.9875C16.2374 1.8375 16.0124 1.8375 15.8624 1.9875L15.0749 2.775C14.9249 2.925 14.9249 3.15 15.0749 3.3L17.7374 5.9625C17.8124 6.0375 17.9249 6.075 17.9999 6.075C18.0749 6.075 18.1874 6.0375 18.2624 5.9625L19.0499 5.175C19.1624 5.025 19.1624 4.8 19.0499 4.65Z" fill="#E53935"/>
<path d="M12.9375 8.4749C12.825 8.4749 12.75 8.4374 12.675 8.3624C12.525 8.2124 12.525 7.9874 12.675 7.8374L14.25 6.2624C14.4 6.1124 14.625 6.1124 14.775 6.2624C14.925 6.4124 14.925 6.6374 14.775 6.7874L13.2 8.3624C13.125 8.4374 13.0125 8.4749 12.9375 8.4749Z" fill="#78909C"/>
<path d="M16.125 5.4374L15.6 4.9124C15.3 4.6124 14.925 4.4624 14.55 4.4624C14.1375 4.4624 13.7625 4.6124 13.5 4.9124L13.2375 5.1749C13.1625 5.2499 13.125 5.3249 13.125 5.4374C13.125 5.5499 13.1625 5.6249 13.2375 5.6999L15.375 7.8374C15.45 7.9124 15.5625 7.9499 15.6375 7.9499C15.7125 7.9499 15.825 7.9124 15.9 7.8374L16.1625 7.5749C16.4625 7.2749 16.6125 6.8999 16.6125 6.5249C16.5375 6.0749 16.3875 5.6999 16.125 5.4374Z" fill="#E53935"/>
</svg>
