<svg xmlns="http://www.w3.org/2000/svg" width="48" height="48" id="mobile">
  <g transform="translate(90 -1259.362)">
    <circle cx="-66" cy="1283.362" r="24" fill="#e7ecf1"></circle>
    <rect width="19" height="32.994" x="-75.628" y="1264.368" fill="#3d444d" rx="1.431" ry="1.424"></rect>
    <rect width="15" height="24.003" x="-73.628" y="1267.359" fill="#f9f9f9" rx="0" ry="0"></rect>
    <path fill="#4f5863" d="M-67.962 1265.372v.987h4v-.987h-4z" color="#000" font-family="Sans" font-weight="400" overflow="visible" style="line-height:normal;-inkscape-font-specification:Sans;text-indent:0;text-align:start;text-decoration-line:none;text-transform:none;block-progression:tb;marker:none"></path>
    <ellipse cx="-72.468" cy="1265.859" fill="#4f5863" rx=".507" ry=".5"></ellipse>
    <circle cx="-66.128" cy="1294.362" r="1.5" fill="#4f5863"></circle>
    <path fill="#f9d5ac" d="M-75.629 1277.569c-2.914 2.753-5.138 6.733-5 10.406v8.188c-1.148 3.482-3.233 6.233-5 8l.094.031h.031l2.656.406 5.719.875v-.031h.031l.032-.188 1.937-5.906c4.412-3.578 2.904-9.962 3.134-12.785.23-2.824.881-2.428.679-4.121 0-1.345-.548-2.108-1.47-2.031-.92.076-1.06.807-1.374 2.031-.472 1.834-.982 4.196-1.469 5.16z"></path>
    <path fill="#f7c68f" d="M-77.34 1292.111c.233-1.234.331-2.374 1.711-4.412v-4.986s-1.588 2.873-1.863 4.29c-.274 1.417.153 5.108.153 5.108zM-71.934 1291.412c-.099 3.487-2.173 4.95-3.329 6.29l-1.772 7.46 1.906-5.812c2.883-2.495 3.237-4.468 3.195-7.938zm-10.914 13.188 5.719.875v-.031z"></path>
    <path fill="#5a6174" d="m-84.025 1299.218 9.386 3.449-1.724 4.693-9.386-3.449z"></path>
    <path fill="#fcead4" d="M-73.067 1281.106c-.429-.102-.836.291-.976.88-.085.357-.205.893-.317 1.35l1.496.357.319-1.338c.14-.589-.093-1.146-.522-1.249z"></path>
    <rect width="10" height="1" x="-71" y="1287.362" fill="#e2e6e9" rx="5" ry="0"></rect>
    <g transform="translate(0 -38)">
      <path fill="#54d186" d="m-64.031 1317.662-3.458-8.161-3.71 1.571 3.458 8.162 3.71-1.572z"></path>
      <path fill="#46aa6f" d="M-67.49 1309.097a.409.409 0 0 0-.157.03l-3.711 1.573a.4.4 0 0 0-.213.528l3.457 8.162a.404.404 0 0 0 .53.215l3.708-1.573a.4.4 0 0 0 .213-.527l-3.457-8.162a.402.402 0 0 0-.37-.246zm0 .402-.37.158c.087.205.322.3.527.213l3.145 7.42a.403.403 0 0 0-.215.53l-2.969 1.255a.403.403 0 0 0-.527-.213l.158.372h-.002l-.156-.372-3.145-7.42a.405.405 0 0 0 .215-.529l3.338-1.414z"></path>
      <g fill="#46aa6f" color="#000" font-family="sans-serif" font-weight="400">
        <path fill-rule="evenodd" d="M95.557 1063.932a.25.25 0 0 0-.246.253v.375a.25.25 0 1 0 .5 0v-.375a.25.25 0 0 0-.254-.253z" overflow="visible" style="line-height:normal;text-indent:0;text-align:start;text-decoration-line:none;text-decoration-style:solid;text-decoration-color:#000;text-transform:none;block-progression:tb;isolation:auto;mix-blend-mode:normal" transform="scale(-.80582 .80582)rotate(-67.041 516.459 1357.092)"></path>
        <path d="M95.56 1065.938a.25.25 0 1 0 0-.5c-.175 0-.308-.123-.322-.272-.013-.149.091-.287.264-.316a.325.325 0 0 1 .371.218.25.25 0 1 0 .482-.136.825.825 0 0 0-.935-.575c-.413.07-.718.439-.68.854a.817.817 0 0 0 .82.727z" overflow="visible" style="line-height:normal;text-indent:0;text-align:start;text-decoration-line:none;text-decoration-style:solid;text-decoration-color:#000;text-transform:none;block-progression:tb;isolation:auto;mix-blend-mode:normal" transform="scale(-.80582 .80582)rotate(-67.041 516.459 1357.092)"></path>
        <path d="M95.516 1065.438a.25.25 0 0 0 .025.5c.176 0 .309.122.322.271.014.149-.09.285-.263.314-.173.03-.33-.07-.371-.216a.25.25 0 1 0-.481.134.824.824 0 0 0 .934.577.807.807 0 0 0 .68-.856c-.039-.415-.403-.724-.821-.724a.25.25 0 0 0-.025 0z" overflow="visible" style="line-height:normal;text-indent:0;text-align:start;text-decoration-line:none;text-decoration-style:solid;text-decoration-color:#000;text-transform:none;block-progression:tb;isolation:auto;mix-blend-mode:normal" transform="scale(-.80582 .80582)rotate(-67.041 516.459 1357.092)"></path>
        <path fill-rule="evenodd" d="M95.557 1066.557a.25.25 0 0 0-.246.253v.375a.25.25 0 1 0 .5 0v-.375a.25.25 0 0 0-.254-.253z" overflow="visible" style="line-height:normal;text-indent:0;text-align:start;text-decoration-line:none;text-decoration-style:solid;text-decoration-color:#000;text-transform:none;block-progression:tb;isolation:auto;mix-blend-mode:normal" transform="scale(-.80582 .80582)rotate(-67.041 516.459 1357.092)"></path>
      </g>
      <g transform="scale(-.80582 .80582)rotate(-67.041 516.924 1356.853)">
        <circle cx="92.25" cy="1065.112" r=".25" fill="#deffe7"></circle>
        <path fill="#46aa6f" d="M92.25 1064.363a.754.754 0 0 0-.75.75c0 .411.339.75.75.75s.75-.339.75-.75a.754.754 0 0 0-.75-.75zm0 .5c.141 0 .25.11.25.25 0 .141-.109.25-.25.25a.246.246 0 0 1-.25-.25c0-.14.109-.25.25-.25z" color="#000" font-family="sans-serif" font-weight="400" overflow="visible" style="line-height:normal;text-indent:0;text-align:start;text-decoration-line:none;text-decoration-style:solid;text-decoration-color:#000;text-transform:none;block-progression:tb;isolation:auto;mix-blend-mode:normal"></path>
      </g>
      <g transform="scale(-.80582 .80582)rotate(-67.041 513.671 1351.94)">
        <circle cx="92.25" cy="1065.112" r=".25" fill="#deffe7"></circle>
        <path fill="#46aa6f" d="M92.25 1064.363a.754.754 0 0 0-.75.75c0 .411.339.75.75.75s.75-.339.75-.75a.754.754 0 0 0-.75-.75zm0 .5c.141 0 .25.11.25.25 0 .141-.109.25-.25.25a.246.246 0 0 1-.25-.25c0-.14.109-.25.25-.25z" color="#000" font-family="sans-serif" font-weight="400" overflow="visible" style="line-height:normal;text-indent:0;text-align:start;text-decoration-line:none;text-decoration-style:solid;text-decoration-color:#000;text-transform:none;block-progression:tb;isolation:auto;mix-blend-mode:normal"></path>
      </g>
      <path fill="#54d186" d="m-69.238 1317.55 1.228-8.78 3.99.559-1.227 8.778-3.99-.557z"></path>
      <path fill="#46aa6f" d="M-67.956 1308.37a.403.403 0 0 0-.455.344l-1.228 8.778a.403.403 0 0 0 .343.455l3.99.558a.403.403 0 0 0 .456-.343l1.226-8.778a.401.401 0 0 0-.341-.455l-3.99-.559zm-.056.399-.055.4c.22.031.422-.123.453-.343l3.194.445c-.031.22.123.424.343.455l-1.172 8.38.055-.4a.403.403 0 0 0-.455.344l-3.191-.445a.403.403 0 0 0-.344-.455l1.172-8.381z"></path>
      <path fill="#46aa6f" fill-rule="evenodd" d="M95.557 1063.932a.25.25 0 0 0-.246.253v.375a.25.25 0 1 0 .5 0v-.375a.25.25 0 0 0-.254-.253z" color="#000" font-family="sans-serif" font-weight="400" overflow="visible" style="line-height:normal;text-indent:0;text-align:start;text-decoration-line:none;text-decoration-style:solid;text-decoration-color:#000;text-transform:none;block-progression:tb;isolation:auto;mix-blend-mode:normal" transform="rotate(-82.041 266.478 1168.594)scale(.80582)"></path>
      <path fill="#46aa6f" d="M95.56 1065.938a.25.25 0 1 0 0-.5c-.175 0-.308-.123-.322-.272-.013-.149.091-.287.264-.316a.325.325 0 0 1 .371.218.25.25 0 1 0 .482-.136.825.825 0 0 0-.935-.575c-.413.07-.718.439-.68.854a.817.817 0 0 0 .82.727z" color="#000" font-family="sans-serif" font-weight="400" overflow="visible" style="line-height:normal;text-indent:0;text-align:start;text-decoration-line:none;text-decoration-style:solid;text-decoration-color:#000;text-transform:none;block-progression:tb;isolation:auto;mix-blend-mode:normal" transform="rotate(-82.041 266.478 1168.594)scale(.80582)"></path>
      <path fill="#46aa6f" d="M95.516 1065.438a.25.25 0 0 0 .025.5c.176 0 .309.122.322.271.014.149-.09.285-.263.314-.173.03-.33-.07-.371-.216a.25.25 0 1 0-.481.134.824.824 0 0 0 .934.577.807.807 0 0 0 .68-.856c-.039-.415-.403-.724-.821-.724a.25.25 0 0 0-.025 0z" color="#000" font-family="sans-serif" font-weight="400" overflow="visible" style="line-height:normal;text-indent:0;text-align:start;text-decoration-line:none;text-decoration-style:solid;text-decoration-color:#000;text-transform:none;block-progression:tb;isolation:auto;mix-blend-mode:normal" transform="rotate(-82.041 266.478 1168.594)scale(.80582)"></path>
      <path fill="#46aa6f" fill-rule="evenodd" d="M95.557 1066.557a.25.25 0 0 0-.246.253v.375a.25.25 0 1 0 .5 0v-.375a.25.25 0 0 0-.254-.253z" color="#000" font-family="sans-serif" font-weight="400" overflow="visible" style="line-height:normal;text-indent:0;text-align:start;text-decoration-line:none;text-decoration-style:solid;text-decoration-color:#000;text-transform:none;block-progression:tb;isolation:auto;mix-blend-mode:normal" transform="rotate(-82.041 266.478 1168.594)scale(.80582)"></path>
      <path fill="#deffe7" d="M-66.964 1315.833a.201.201 0 0 1 .172.228.201.201 0 0 1-.227.171.201.201 0 0 1-.172-.227.201.201 0 0 1 .227-.172z"></path>
      <path fill="#46aa6f" d="M92.25 1064.363a.754.754 0 0 0-.75.75c0 .411.339.75.75.75s.75-.339.75-.75a.754.754 0 0 0-.75-.75zm0 .5c.141 0 .25.11.25.25 0 .141-.109.25-.25.25a.246.246 0 0 1-.25-.25c0-.14.109-.25.25-.25z" color="#000" font-family="sans-serif" font-weight="400" overflow="visible" style="line-height:normal;text-indent:0;text-align:start;text-decoration-line:none;text-decoration-style:solid;text-decoration-color:#000;text-transform:none;block-progression:tb;isolation:auto;mix-blend-mode:normal" transform="rotate(-82.041 266.77 1168.392)scale(.80582)"></path>
      <path fill="#deffe7" d="M-66.238 1310.646a.201.201 0 0 1 .171.227.201.201 0 0 1-.227.172.201.201 0 0 1-.172-.227.201.201 0 0 1 .228-.172z"></path>
      <path fill="#46aa6f" d="M92.25 1064.363a.754.754 0 0 0-.75.75c0 .411.339.75.75.75s.75-.339.75-.75a.754.754 0 0 0-.75-.75zm0 .5c.141 0 .25.11.25.25 0 .141-.109.25-.25.25a.246.246 0 0 1-.25-.25c0-.14.109-.25.25-.25z" color="#000" font-family="sans-serif" font-weight="400" overflow="visible" style="line-height:normal;text-indent:0;text-align:start;text-decoration-line:none;text-decoration-style:solid;text-decoration-color:#000;text-transform:none;block-progression:tb;isolation:auto;mix-blend-mode:normal" transform="rotate(-82.041 264.15 1165.381)scale(.80582)"></path>
      <g transform="rotate(-67.041 347.314 1189.992)scale(.80582)">
        <path fill="#54d186" d="M83.5 1062.612h11v5h-11v-5z"></path>
        <path fill="#46aa6f" d="M94.962 1062.417a.499.499 0 0 0-.46-.305l-11.002-.001a.498.498 0 0 0-.498.5l-.001 5a.5.5 0 0 0 .501.5h11a.498.498 0 0 0 .499-.5l.001-5a.492.492 0 0 0-.04-.194zm-.46.696v3.998c-.276 0-.5.225-.5.501L84 1067.611a.5.5 67.041 0 0-.499-.5l-.002-4a.5.5 67.041 0 0 .502-.5h10c0 .276.223.502.5.502z"></path>
        <path fill="#46aa6f" fill-rule="evenodd" d="M95.557 1063.932a.25.25 0 0 0-.246.253v.375a.25.25 0 1 0 .5 0v-.375a.25.25 0 0 0-.254-.253z" color="#000" font-family="sans-serif" font-weight="400" overflow="visible" style="line-height:normal;text-indent:0;text-align:start;text-decoration-line:none;text-decoration-style:solid;text-decoration-color:#000;text-transform:none;block-progression:tb;isolation:auto;mix-blend-mode:normal" transform="translate(-6.437 -.574)"></path>
        <path fill="#46aa6f" d="M95.56 1065.938a.25.25 0 1 0 0-.5c-.175 0-.308-.123-.322-.272-.013-.149.091-.287.264-.316a.325.325 0 0 1 .371.218.25.25 0 1 0 .482-.136.825.825 0 0 0-.935-.575c-.413.07-.718.439-.68.854a.817.817 0 0 0 .82.727z" color="#000" font-family="sans-serif" font-weight="400" overflow="visible" style="line-height:normal;text-indent:0;text-align:start;text-decoration-line:none;text-decoration-style:solid;text-decoration-color:#000;text-transform:none;block-progression:tb;isolation:auto;mix-blend-mode:normal" transform="translate(-6.437 -.574)"></path>
        <path fill="#46aa6f" d="M95.516 1065.438a.25.25 0 0 0 .025.5c.176 0 .309.122.322.271.014.149-.09.285-.263.314-.173.03-.33-.07-.371-.216a.25.25 0 1 0-.481.134.824.824 0 0 0 .934.577.807.807 0 0 0 .68-.856c-.039-.415-.403-.724-.821-.724a.25.25 0 0 0-.025 0z" color="#000" font-family="sans-serif" font-weight="400" overflow="visible" style="line-height:normal;text-indent:0;text-align:start;text-decoration-line:none;text-decoration-style:solid;text-decoration-color:#000;text-transform:none;block-progression:tb;isolation:auto;mix-blend-mode:normal" transform="translate(-6.437 -.574)"></path>
        <path fill="#46aa6f" fill-rule="evenodd" d="M95.557 1066.557a.25.25 0 0 0-.246.253v.375a.25.25 0 1 0 .5 0v-.375a.25.25 0 0 0-.254-.253z" color="#000" font-family="sans-serif" font-weight="400" overflow="visible" style="line-height:normal;text-indent:0;text-align:start;text-decoration-line:none;text-decoration-style:solid;text-decoration-color:#000;text-transform:none;block-progression:tb;isolation:auto;mix-blend-mode:normal" transform="translate(-6.437 -.574)"></path>
        <circle cx="92.25" cy="1065.112" r=".25" fill="#deffe7" transform="translate(-6.5)"></circle>
        <path fill="#46aa6f" d="M92.25 1064.363a.754.754 0 0 0-.75.75c0 .411.339.75.75.75s.75-.339.75-.75a.754.754 0 0 0-.75-.75zm0 .5c.141 0 .25.11.25.25 0 .141-.109.25-.25.25a.246.246 0 0 1-.25-.25c0-.14.109-.25.25-.25z" color="#000" font-family="sans-serif" font-weight="400" overflow="visible" style="line-height:normal;text-indent:0;text-align:start;text-decoration-line:none;text-decoration-style:solid;text-decoration-color:#000;text-transform:none;block-progression:tb;isolation:auto;mix-blend-mode:normal" transform="translate(-6.5)"></path>
        <circle cx="92.25" cy="1065.112" r=".25" fill="#deffe7"></circle>
        <path fill="#46aa6f" d="M92.25 1064.363a.754.754 0 0 0-.75.75c0 .411.339.75.75.75s.75-.339.75-.75a.754.754 0 0 0-.75-.75zm0 .5c.141 0 .25.11.25.25 0 .141-.109.25-.25.25a.246.246 0 0 1-.25-.25c0-.14.109-.25.25-.25z" color="#000" font-family="sans-serif" font-weight="400" overflow="visible" style="line-height:normal;text-indent:0;text-align:start;text-decoration-line:none;text-decoration-style:solid;text-decoration-color:#000;text-transform:none;block-progression:tb;isolation:auto;mix-blend-mode:normal"></path>
      </g>
      <rect width="11" height="8" x="-71.628" y="1314.362" fill="#3aa7f9" fill-rule="evenodd" rx="1" ry="1"></rect>
      <rect width="9.5" height="6.5" x="-70.878" y="1315.112" fill="none" stroke="#2f84d1" stroke-dasharray=".5 .5" stroke-width=".5" rx=".75" ry=".75"></rect>
      <rect width="4" height="2" x="-64.628" y="1317.362" fill="#308be5" rx="1" ry="1"></rect>
      <path fill="#308be5" d="M-63.628 1319.362h2c.554 0 1-.446 1-1v-2c0 .554-.446 1-1 1h-2v2z"></path>
      <circle cx="-63.628" cy="1318.362" r=".5" fill="#cff1ff"></circle>
    </g>
  </g>
</svg>
