<svg width="24" height="24" viewBox="0 0 24 24" fill="none" xmlns="http://www.w3.org/2000/svg">
<path fill-rule="evenodd" clip-rule="evenodd" d="M4.75159 8.91386H10.9305V18.4789H17.4712C18.0968 18.4789 18.6086 17.967 18.6086 17.3415V7.67302C18.6086 7.04745 18.0968 6.53564 17.4712 6.53564H4.75159C4.09758 6.53564 3.5625 7.07076 3.5625 7.72477C3.5625 8.37878 4.09758 8.91389 4.75159 8.91389V8.91386Z" fill="#AE6E45"/>
<path fill-rule="evenodd" clip-rule="evenodd" d="M4.75159 8.91386H10.9305V18.4789H16.7592C17.3848 18.4789 17.8966 17.967 17.8966 17.3415V7.67302C17.8966 7.04745 17.3847 6.53564 16.7592 6.53564H4.75159C4.09758 6.53564 3.5625 7.07076 3.5625 7.72477C3.5625 8.37878 4.09758 8.91389 4.75159 8.91389V8.91386Z" fill="#C17A4D"/>
<path d="M16.5519 4.3833H4.75171V10.9426H16.5519V4.3833Z" fill="#1A8572"/>
<path d="M17.4476 5.2793H5.64746V11.8386H17.4476V5.2793Z" fill="#20A48D"/>
<path fill-rule="evenodd" clip-rule="evenodd" d="M15.872 6.17533H7.22313C7.22313 6.54914 6.91727 6.85504 6.54346 6.85504V10.263C6.91727 10.263 7.22313 10.5689 7.22313 10.9427H15.872C15.872 10.5689 16.1779 10.263 16.5517 10.263V6.855C16.1779 6.855 15.872 6.54914 15.872 6.17529L15.872 6.17533Z" fill="#28D481"/>
<path fill-rule="evenodd" clip-rule="evenodd" d="M16.5518 9.42155V6.855C16.178 6.855 15.8721 6.54914 15.8721 6.17529V9.40773H16.3582C16.424 9.40773 16.4886 9.41252 16.5518 9.42155Z" fill="#24BF74"/>
<path d="M11.7186 10.277C12.6673 10.1826 13.3599 9.33694 13.2655 8.3882C13.1711 7.43947 12.3255 6.74689 11.3768 6.84129C10.428 6.93568 9.73546 7.78131 9.82985 8.73004C9.92425 9.67877 10.7699 10.3713 11.7186 10.277Z" fill="#FDDD41"/>
<path fill-rule="evenodd" clip-rule="evenodd" d="M11.3124 10.2691C10.4704 10.1543 9.82153 9.43241 9.82153 8.55888C9.82153 7.68535 10.4704 6.96349 11.3124 6.84863C12.1544 6.96349 12.8032 7.68535 12.8032 8.55888C12.8032 9.43241 12.1544 10.1543 11.3124 10.2691Z" fill="#FFE97A"/>
<path fill-rule="evenodd" clip-rule="evenodd" d="M12.1417 8.14362C12.1417 8.24069 12.063 8.3194 11.9659 8.3194C11.8689 8.3194 11.7902 8.24069 11.7902 8.14362C11.7902 8.09686 11.7667 8.0532 11.7288 8.0204C11.684 7.98169 11.6201 7.95772 11.5477 7.95772C11.4753 7.95772 11.4114 7.98166 11.3667 8.0204C11.3287 8.0532 11.3053 8.09686 11.3053 8.14366C11.3053 8.2724 11.4514 8.30471 11.601 8.33768C11.899 8.40346 12.2041 8.47082 12.2041 8.921C12.2041 9.08887 12.1269 9.23955 12.0022 9.34741C11.9251 9.4141 11.8296 9.46416 11.7235 9.49077V9.59413C11.7235 9.6912 11.6448 9.76991 11.5477 9.76991C11.4507 9.76991 11.3719 9.6912 11.3719 9.59413V9.49077C11.2659 9.46412 11.1704 9.4141 11.0932 9.34741C10.9685 9.23955 10.8914 9.08887 10.8914 8.921C10.8914 8.82393 10.9701 8.74521 11.0671 8.74521C11.1642 8.74521 11.2429 8.82393 11.2429 8.921C11.2429 8.98262 11.2734 9.03982 11.3226 9.08236C11.3786 9.13084 11.4581 9.16083 11.5478 9.16083C11.6374 9.16083 11.7169 9.13084 11.7729 9.08236C11.8221 9.03982 11.8526 8.98262 11.8526 8.921C11.8526 8.75186 11.6871 8.71533 11.5255 8.67965C11.2363 8.61584 10.9538 8.55344 10.9538 8.14366C10.9538 7.99066 11.0239 7.85348 11.1373 7.75536C11.2029 7.69868 11.2831 7.6553 11.372 7.63027V7.52441C11.372 7.42735 11.4507 7.34863 11.5478 7.34863C11.6448 7.34863 11.7235 7.42735 11.7235 7.52441V7.63027C11.8125 7.65527 11.8926 7.69865 11.9582 7.75536C12.0716 7.85344 12.1418 7.99066 12.1418 8.14362H12.1417Z" fill="#FCBC40"/>
<path fill-rule="evenodd" clip-rule="evenodd" d="M4.69984 19.6166H18.6368C19.2624 19.6166 19.7742 19.1048 19.7742 18.4793V10.0516C19.7742 9.42603 19.2623 8.91422 18.6368 8.91422H4.75159C4.09758 8.91422 3.5625 8.37914 3.5625 7.7251V18.4792C3.5625 19.1048 4.0743 19.6166 4.69988 19.6166L4.69984 19.6166Z" fill="#D68756"/>
<path fill-rule="evenodd" clip-rule="evenodd" d="M4.69984 19.6166H17.2713C17.8969 19.6166 18.4087 19.1048 18.4087 18.4793V10.0516C18.4087 9.42603 17.8969 8.91422 17.2713 8.91422H4.75159C4.09758 8.91422 3.5625 8.37914 3.5625 7.7251V18.4792C3.5625 19.1048 4.0743 19.6166 4.69988 19.6166L4.69984 19.6166Z" fill="#E6935F"/>
<path d="M13.269 12.9507H19.7743C20.1404 12.9507 20.4376 13.2479 20.4376 13.614V14.9165C20.4376 15.2826 20.1404 15.5798 19.7743 15.5798H13.269C12.9029 15.5798 12.6057 15.2826 12.6057 14.9166V13.614C12.6057 13.2479 12.9029 12.9508 13.269 12.9508V12.9507Z" fill="#AE6E45" stroke="#AE6E45" stroke-width="0.216" stroke-miterlimit="22.926"/>
<path d="M13.269 12.9507H18.6592C19.0253 12.9507 19.3225 13.2479 19.3225 13.614V14.9165C19.3225 15.2826 19.0253 15.5798 18.6592 15.5798H13.269C12.9029 15.5798 12.6057 15.2826 12.6057 14.9166V13.614C12.6057 13.2479 12.9029 12.9508 13.269 12.9508V12.9507Z" fill="#C17A4D"/>
<path d="M7.56043 17.6387H4.98587C4.8409 17.6387 4.72339 17.7562 4.72339 17.9011V18.4167C4.72339 18.5616 4.8409 18.6792 4.98587 18.6792H7.56043C7.70539 18.6792 7.8229 18.5616 7.8229 18.4167V17.9011C7.8229 17.7562 7.70539 17.6387 7.56043 17.6387Z" fill="#C17A4D"/>
<path fill-rule="evenodd" clip-rule="evenodd" d="M14.0142 14.8854C14.3557 14.8854 14.6342 14.6069 14.6342 14.2655C14.6342 13.924 14.3557 13.6455 14.0142 13.6455C13.6728 13.6455 13.3943 13.924 13.3943 14.2655C13.3943 14.6069 13.6728 14.8854 14.0142 14.8854Z" fill="#FCBC40"/>
<path fill-rule="evenodd" clip-rule="evenodd" d="M17.4478 8.92764V5.2793H16.8286V8.91386H17.2714C17.3314 8.91386 17.3903 8.9186 17.4478 8.92764H17.4478Z" fill="#1D947F"/>
</svg>
